<svg width="974" height="546" viewBox="0 0 974 546" fill="none" xmlns="http://www.w3.org/2000/svg">
<path d="M260 546C255.273 546 249.183 544.778 242.898 543.517L242.083 543.353C214.34 537.798 192.953 534.31 184.689 533.129C137.281 528.136 121.652 531.336 89.0844 541.755C88.6197 541.901 88.1195 541.649 87.9734 541.18C87.823 540.715 88.0797 540.215 88.5489 540.069C121.378 529.57 137.13 526.343 184.911 531.376C193.223 532.567 214.65 536.054 242.433 541.618L243.252 541.782C253.543 543.844 264.183 545.982 266.693 542.012C267.627 540.538 266.963 538.98 265.502 535.886C264.236 533.208 262.506 529.539 261.842 524.502C258.367 503.257 294.67 452.52 304.736 440.795C304.762 440.764 304.789 440.737 304.82 440.706C309.817 436.285 313.486 434.487 316.429 433.045C319.731 431.425 322.121 430.256 324.724 426.144C327.477 421.789 327.738 418.531 328.044 414.76C328.345 410.993 328.69 406.722 331.771 400.831C334.537 395.546 337.595 392.519 340.056 390.084C342.721 387.446 344.332 385.857 344.066 383.029C343.535 377.368 335.944 373.402 328.606 369.565C322.254 366.245 318.284 365.32 314.442 364.426C311.131 363.656 308.002 362.925 303.815 360.708C297.406 357.317 295.162 353.98 292.568 350.112C290.404 346.889 287.956 343.238 282.428 338.776C282.406 338.759 282.388 338.741 282.37 338.723C273.792 330.468 260.248 325.431 247.859 325.909C243.11 326.091 238.622 327.043 234.484 328.725C233.373 329.499 232.191 330.229 230.956 330.92C229.624 331.659 228.269 332.323 226.902 332.903C225.994 333.549 225.118 334.24 224.264 334.974C228.588 336.129 232.576 337.32 233.665 340.772C234.683 344.004 232.381 346.54 229.947 349.222C227.601 351.811 224.936 354.741 224.852 358.76C224.75 363.7 228.597 366.807 237.029 373.615C240.065 376.067 243.84 379.116 248.152 382.861C255.101 388.894 265.599 398.012 274.832 410.139C283.857 421.992 289.815 429.822 289.766 440.188C289.735 446.292 287.695 449.182 283.632 454.936C280.927 458.765 277.223 464.01 272.54 472.482C264.493 487.044 257.539 499.623 255.53 516.42C254.999 520.859 254.893 524.865 254.804 528.083C254.654 533.682 254.574 536.767 252.485 537.241C252.352 537.272 252.219 537.285 252.086 537.285C247.346 537.285 241.101 519.16 240.831 518.367C236.644 506.107 235.316 492.864 236.657 476.695C237.644 464.78 239.711 456.525 241.375 449.895C243.725 440.525 245.275 434.333 242.017 425.131C238.711 416.225 231.912 407.227 225.339 398.521C210.405 378.745 194.962 358.296 219.213 337.448C219.705 336.895 220.209 336.36 220.727 335.842C220.174 335.682 219.621 335.519 219.072 335.337C213.809 336.391 208.657 336.236 204.218 334.788C202.137 334.111 201.31 333.5 199.499 332.159C197.959 331.022 195.626 329.3 191.041 326.432C184.172 322.205 176.253 318.168 168.591 314.269C155.685 307.691 143.491 301.482 136.019 294.462C126.171 285.592 121.373 276.624 113.419 261.775C105.395 246.788 101.367 239.268 100.924 228.937C100.597 221.355 102.283 217.345 103.912 213.463C105.532 209.608 107.059 205.965 106.824 198.83C106.581 191.456 104.656 187.464 102.425 182.843C100.11 178.049 97.4897 172.614 96.2061 162.323C95.5289 156.901 95.613 153.281 95.6838 150.373C95.7768 146.407 95.8343 144.017 93.9311 140.179C90.0006 132.252 80.688 123.993 70.4901 123.555C61.8237 123.178 56.1007 128.547 49.4748 134.757C42.415 141.374 34.4125 148.877 21.0765 150.696C12.2906 151.895 3.85438 150.244 1.07033 148.031C0.419681 147.513 0.0655884 146.951 0.00804837 146.358C-0.222112 143.871 4.48289 142.361 14.2868 139.449C24.8211 136.32 39.2503 132.035 39.5469 126.166C39.6487 124.156 37.9579 122.523 36.1653 120.797C33.9434 118.655 31.4293 116.225 31.8764 112.529C32.3455 108.683 36.6345 105.235 45.1858 98.3741C46.0932 97.6483 46.9386 96.9843 47.7131 96.378C50.2139 94.4216 52.7988 92.3988 52.5642 91.6553C52.4447 91.2746 51.1036 91.133 50.028 91.0223C47.9787 90.8098 45.1681 90.5221 43.3091 88.4419C41.8131 86.7688 41.0429 84.0113 41.2421 81.0635C41.4546 77.943 42.6718 75.2209 44.575 73.601C48.0938 70.6089 53.1662 72.0474 57.6454 73.3177C61.4652 74.4021 65.0725 75.4245 66.9669 73.6319C68.7285 71.9633 67.8699 68.8561 66.8784 65.2621C65.7099 61.0351 64.3909 56.2416 66.8076 52.0013C71.8667 43.1269 91.0275 41.0997 103.421 48.1284C106.625 49.9476 108.135 51.6915 110.228 54.1082C112.477 56.7063 115.553 60.265 122.431 65.9172C134.315 76.3894 138.445 76.3452 144.686 76.2744C147.735 76.239 151.157 76.2035 156.065 77.2304C157.101 75.8937 158.181 74.4641 159.252 73.0477C167.892 61.6017 178.639 47.3583 187.38 49.4165C190.116 49.983 193.081 54.3737 200.115 65.1382C200.486 65.7047 200.845 66.258 201.194 66.798C203.558 66.9484 206.019 66.736 208.555 65.957C210.569 65.3373 211.928 64.5805 213.242 63.8501C214.508 63.1464 215.73 62.4648 217.407 61.938C216.022 59.2027 214.088 56.2726 211.357 53.6744C208.785 51.2312 206.665 50.1822 204.793 49.2615C202.571 48.1638 200.65 47.2211 199.008 44.437C195.967 39.285 196.308 31.61 199.814 26.1924C204.474 18.9911 214.212 17.0303 221.134 17.5393C226.694 17.9465 230.876 19.7966 232.049 22.3726C232.872 24.1741 232.098 25.6613 230.407 28.9189C229.15 31.3445 227.251 35.0049 224.985 40.7677C221.696 49.1332 221.86 51.1736 222.529 52.1341C224.467 54.9226 231.244 54.688 236.006 52.6121C241.473 50.2309 243.247 46.0659 245.704 40.3074C247.404 36.3195 249.333 31.7959 252.963 26.9272C258.752 19.1814 270.906 11.0284 284.681 5.64178C299.601 -0.191894 313.225 -1.57728 322.055 1.83971C324.91 2.94625 334.214 6.99176 334.032 12.5333C333.922 15.8264 330.646 17.3711 325.22 19.9294C321.975 21.4609 317.943 23.3641 313.141 26.2455C311.654 27.1396 310.135 28.0514 308.6 29.003C312.574 32.7387 315.947 37.1029 314.694 40.3605C313.712 42.9189 310.667 43.3172 307.44 43.7377C303.952 44.1936 300.34 44.6628 298.486 47.5973C296.127 51.3241 297.583 57.357 300.358 61.0794C304.426 64.669 307.896 65.8242 310.689 66.7537C314.008 67.8602 316.629 68.7322 318.045 72.8485C319.399 76.7789 319.59 83.8121 318.682 96.3647C318.346 101.57 317.74 106.416 317.151 111.108C315.146 127.126 313.561 139.785 324.684 151.9C328.823 154.87 331.695 156.034 333.461 155.458C335.435 154.816 336.391 151.886 337.609 148.177C338.87 144.318 340.446 139.515 343.876 135.47C347.01 132.017 349.701 131.278 353.768 130.163C357.393 129.167 362.36 127.808 370.114 123.842C370.389 123.701 370.663 123.559 370.933 123.422C366.896 118.881 361.324 116.915 346.567 125.396C339.45 129.49 335.431 134.376 332.492 137.944C329.876 141.122 327.986 143.419 325.454 142.799C319.603 141.365 319.125 125.449 319.271 113.6C319.395 103.703 320.528 98.3564 321.626 93.1867C322.759 87.8487 323.826 82.8074 323.6 73.1097C323.197 55.8078 322.082 47.584 322.033 47.2432C321.794 45.5303 321.559 44.0564 321.356 42.7551C320.594 37.9483 320.174 35.297 321.276 31.5304C323.542 23.7757 331.124 15.3085 339.419 15.158C342.809 15.1049 345.208 16.4682 347.324 17.6765C349.626 18.9955 351.613 20.133 354.596 19.5045C356.561 19.0884 357.447 18.2165 358.921 16.7647C359.956 15.7467 361.24 14.4764 363.289 12.9803C370.606 7.03159 378.785 4.65032 385.168 6.60668C390.514 8.24436 394.449 12.7812 396.543 19.7214C397.539 22.6603 397.725 25.2142 397.862 27.0776C398.012 29.1358 398.123 30.2291 398.849 30.5964C400.19 31.2736 402.616 29.3438 404.753 27.6486C407.343 25.5949 409.786 23.6562 411.835 24.7008C416 26.8254 412.61 39.3735 411.888 41.8654C410.087 48.0842 408.042 51.1781 405.674 54.7632C404.036 57.2463 402.177 60.0569 400.031 64.4344C398.234 68.0993 392.758 79.2532 391.068 94.0454C390.665 97.5509 390.612 100.127 390.568 102.194C390.492 105.819 390.439 108.209 388.611 111.67C385.584 117.384 380.547 120.439 373.682 124.002C374.231 124.732 374.762 125.484 375.288 126.237C377.652 129.601 380.091 133.08 384.459 134.381C386.974 134.598 388.863 133.482 390.868 132.305C393.25 130.906 395.711 129.459 399.106 130.473C399.123 130.477 399.145 130.486 399.163 130.49C403.912 132.274 406.581 135.899 406.311 140.192C406.307 140.285 406.298 140.378 406.289 140.471C419.298 146.907 432.824 161.938 429.589 169.777C428.898 172.101 426.065 177.111 423.994 180.683C423.835 180.953 423.719 181.157 423.657 181.267C422.613 183.958 423.994 186.26 425.738 189.172C427.597 192.271 429.699 195.785 429.243 200.645C428.987 203.398 428.026 205.155 427.256 206.567C426.433 208.076 425.932 208.993 426.437 210.484C427.247 212.445 429.301 213.689 431.288 214.897C433.484 216.225 435.75 217.601 436.13 219.992C436.445 221.961 435.44 224.223 432.97 227.109C432.944 227.14 432.917 227.171 432.886 227.197C429.819 229.915 426.105 229.335 422.507 228.778C419.24 228.273 416.155 227.79 413.526 229.618C409.75 232.243 408.029 239.059 409.91 243.915C411.145 247.097 413.632 248.514 416.036 249.881C418.35 251.2 420.533 252.444 420.975 255.104C421.595 258.844 418.249 261.584 413.619 265.377C411.45 267.157 408.989 269.171 406.564 271.609C395.264 282.108 388.819 299.127 390.116 314.99C391.063 326.542 396.14 335.93 404.417 341.432C406.856 342.676 408.175 342.618 413.615 342.37C418.019 342.171 425.397 341.835 438.215 342.1C450.998 342.361 456.973 342.959 460.536 347.558C462.103 349.581 462.32 351.285 462.625 353.639C462.895 355.728 463.227 358.331 464.608 362.372C466.073 366.652 467.472 368.874 468.707 370.839C469.809 372.592 470.849 374.248 471.699 376.952C473.43 382.48 472.416 386.296 471.239 390.713C470.539 393.333 469.751 396.299 469.375 400.123C469.357 400.295 469.291 400.459 469.18 400.592C468.72 401.955 470.561 411.879 475.266 427.286C478.931 439.268 484.225 453.878 488.107 458.946C489.355 460.575 489.952 460.549 490.014 460.535C490.134 460.522 490.258 460.531 490.377 460.562C507.201 465.44 519.501 450.059 524.016 443.22C525.525 441.038 526.008 440.06 527.061 437.909C527.977 436.046 529.234 433.487 531.846 428.725C540.53 412.883 543.226 410.901 546.08 409.829C548.798 408.811 550.569 409.134 552.281 409.444C552.304 409.444 552.321 409.453 552.344 409.458C552.308 409.134 552.277 408.816 552.242 408.497C551.848 404.699 551.476 401.11 551.024 398.622C550.06 392.222 549.152 388.597 548.493 385.95C547.665 382.639 547.245 380.971 547.877 377.859C548.807 370.941 557.367 362.863 565.644 355.051C570.929 350.063 575.926 345.349 577.874 341.782C581.631 335.452 583.473 329.242 581.994 327.915C581.304 327.295 579.609 328.096 577.648 329.026C574.943 330.305 571.256 332.053 566.932 331.694C566.64 331.77 566.335 331.805 566.02 331.805C560.997 331.805 553.419 322.723 547.749 314.778C540.844 305.098 534.112 293.244 531.74 286.596C530.921 284.299 530.199 281.577 531.815 280.834C532.218 280.599 532.722 280.546 533.311 280.674C536.821 281.435 545.514 289.717 551.467 299.251C554.76 304.531 556.517 309.077 557.925 312.728C559.775 317.522 560.895 320.417 563.94 321.293C565.724 321.806 566.706 321.311 570.593 319.124C572.708 317.934 575.603 316.309 579.834 314.264C584.677 311.923 588.297 310.467 591.21 309.294C596.512 307.16 598.707 306.279 600.288 303.243C602.633 298.737 602.178 292.39 599.349 290.186C598.066 289.186 596.809 289.403 594.52 289.916C592.44 290.381 589.851 290.961 586.367 290.359C577.422 288.818 571.301 281.055 568.782 274.872C568.773 274.854 568.769 274.836 568.76 274.814C566.582 268.228 566.733 266.59 567.769 265.878C569.145 264.93 571.141 266.564 575.116 269.808C578.861 272.866 583.99 277.058 589.638 279.63C595.684 282.294 599.588 282.228 603.722 282.157C607.693 282.091 611.796 282.015 617.912 284.33C631.837 289.588 639.835 300.99 641.955 304.359C646.939 312.281 648.891 320.762 650.316 326.95C651.485 332.04 652.41 336.054 654.265 336.209C654.99 336.262 655.61 335.767 656.628 334.868C657.748 333.885 659.222 332.589 661.568 332.066C661.687 331.349 661.842 330.606 662.028 329.84C665.649 315.185 681.999 294.254 690.891 296.082C694.193 296.237 695.813 297.901 698.482 300.649C700.593 302.823 703.488 305.801 708.618 309.626C713.27 313.096 716.474 314.8 718.811 316.048C721.954 317.721 723.853 318.73 725.773 322.094C725.773 322.094 725.787 322.116 725.796 322.125C725.796 322.125 725.796 322.125 725.796 322.13C725.858 322.223 725.911 322.315 725.955 322.391C730.381 330.11 734.152 335.147 736.317 336.249C737.653 336.528 739.539 335.859 741.393 334.456C744.421 332.159 746.444 328.702 746.545 325.653C746.638 322.957 745.249 321.355 743.323 319.137C741.34 316.849 738.87 313.999 737.525 308.997C736.011 302.013 736.166 297.958 738.029 295.812C739.973 293.568 743.305 293.802 747.165 294.072C750.454 294.302 754.181 294.563 757.775 293.373C763.684 291.27 768.03 287.225 770.332 281.679C771.159 279.687 771.69 277.558 771.938 275.358C770.739 273.663 769.398 271.813 767.999 269.883C759.443 258.083 748.807 243.415 750.48 236.656C750.502 233.894 750.626 226.024 755.783 222.028C756.624 220.642 759.74 220.288 765.781 219.717C772.492 219.084 780.839 218.296 784.216 215.264C790.537 209.803 787.085 193.594 785.226 190.403C777.971 178.032 768.322 171.238 760.045 172.672C752.707 173.946 747.417 181.258 745.151 193.266C742.531 209.32 740.729 212.498 724.047 216.384C704.192 222.09 700.841 219.766 690.904 212.865C687.611 210.577 683.517 207.736 677.781 204.513C672.35 201.999 669.136 201.397 666.029 200.813C662.719 200.193 659.293 199.547 653.401 196.652C647.333 193.665 644.567 191.199 642.124 189.017C639.822 186.964 637.649 185.025 632.966 182.892C620.838 177.368 604.815 175.77 598.995 182.657C597.087 184.914 597.017 187.207 596.941 189.637C596.857 192.302 596.773 195.059 594.233 197.657C589.97 202.008 582.888 201.654 577.192 201.371C573.447 201.185 569.906 201.008 569.269 202.424C569.251 203.199 570.641 206.766 572.394 211.268C573.107 213.096 573.518 214.092 573.788 214.751C574.142 215.614 574.249 215.871 574.399 216.504C575.236 220.027 574.496 222.293 573.846 224.289C573.328 225.883 572.876 227.255 573.23 229.136C573.686 231.575 575.129 232.783 576.802 234.177C578.675 235.74 580.795 237.515 581.866 241.25C582.751 244.34 583.096 249.806 580.25 251.324C580.206 251.346 580.162 251.369 580.113 251.382C576.802 252.48 571.58 248.102 569.49 246.172C563.635 240.759 557.96 232.398 559.293 226.777C559.607 224.254 560.55 222.798 561.466 221.39C562.466 219.854 563.497 218.265 564.011 214.994C564.325 212.994 565.055 208.315 562.935 204.549C559.806 199.003 551.737 198.047 543.929 197.126C536.569 196.254 532.479 196.821 529.19 197.277C525.849 197.741 523.211 198.104 518.966 196.692C512.057 194.395 507.684 189.73 504.492 186.322C502.545 184.242 500.863 182.445 499.955 182.878C499.154 183.263 499.331 185.233 499.535 187.517C499.867 191.235 500.323 196.325 497.596 201.384C493.192 209.555 483.07 212.671 478.918 213.631C473.81 214.813 469.959 214.401 466.866 214.065C463.444 213.698 460.97 213.432 458.412 215.433C455.282 217.876 453.733 222.377 453.817 225.555C453.857 226.998 454.224 227.631 454.437 227.782C454.702 227.968 455.482 227.627 456.238 227.304C457.668 226.688 459.629 225.839 462.023 226.471C463.072 226.746 463.626 227.286 464.962 228.587C465.56 229.167 466.379 229.964 467.512 231.004C471.876 235.005 474.062 237.015 475.944 240.263C477.041 242.158 477.586 243.703 477.988 244.827C478.365 245.88 478.586 246.478 478.865 246.522C479.179 246.575 479.839 246.358 480.657 245.579C481.928 244.375 483.189 242.118 482.955 240.02C482.782 238.475 481.835 237.67 480.268 236.333C478.852 235.129 477.09 233.629 475.24 230.986C475.182 230.902 469.543 222.723 471.849 220.753C472.283 220.381 472.925 220.27 473.757 220.43C476.997 221.036 483.707 225.653 487.368 232.416C488.195 233.947 488.673 235.231 489.138 236.466C489.873 238.431 490.506 240.131 492.396 242.516C494.52 245.194 497.441 248.27 499.323 247.726C500.141 247.487 500.46 246.478 501.168 244.021C501.646 242.353 502.301 240.064 503.474 237.223C506.891 229.911 513.548 217.562 519.9 216.619C522.184 216.367 523.79 217.252 525.202 218.035C526.592 218.805 527.694 219.416 529.239 219C531.164 218.482 532.355 216.774 533.315 215.397C534.13 214.224 534.904 213.118 536.051 213.507C537.241 213.914 537.117 215.278 536.967 216.858C536.803 218.589 536.582 220.957 537.715 222.957C538.804 224.887 541.247 225.856 543.615 226.795C546.129 227.79 548.506 228.733 549.042 230.871C549.466 232.571 548.586 234.629 546.28 237.347C546.244 237.386 546.204 237.426 546.165 237.462C543.642 239.511 540.734 238.869 536.715 237.979C534.276 237.439 531.244 236.771 527.442 236.475C521.644 236.028 514.429 235.474 510.029 239.768C507.422 242.308 505.55 246.85 507.024 249.302C507.546 250.174 508.958 251.099 519.718 252.024C522.117 252.227 524.087 252.36 525.671 252.462C530.748 252.798 532.651 252.922 534.099 254.706C535.312 256.198 535.834 258.495 535.542 261.013C535.179 264.116 533.701 266.935 531.594 268.555C529.478 270.18 526.473 270.56 515.146 268.33C511.455 267.599 508.37 266.887 505.643 266.258C499.969 264.948 496.184 264.072 495.237 265.156C494.848 266.201 495.366 267.794 495.826 269.206C496.37 270.884 496.888 272.468 495.844 273.384C494.733 274.362 492.475 274.159 484.247 270.228C475.581 265.953 471.234 263.806 466.702 259.446C463.896 256.746 462.484 254.671 461.452 253.157C460.253 251.4 459.704 250.594 458.075 250.231C455.588 249.673 453.556 250.824 451.206 252.156C448.581 253.644 445.607 255.33 441.579 254.569C438.512 253.989 435.042 252.108 434.205 249.226C434.196 249.187 434.187 249.147 434.178 249.111C433.519 244.65 437.547 240.334 441.809 235.766C444.788 232.571 447.873 229.269 449.219 225.971C449.227 225.954 449.236 225.932 449.245 225.914C451.29 221.789 452.485 214.446 449.785 211.856C448.271 210.484 445.629 211.064 443.079 211.626C440.468 212.202 437.772 212.799 436.33 210.98C435.36 209.758 435.776 208.497 436.21 207.156C436.577 206.032 436.993 204.757 436.923 202.986C436.808 199.928 435.307 198.113 433.572 196.015C431.806 193.882 429.81 191.461 429.066 187.371C428.38 183.586 429.026 179.612 430.058 178.275C430.341 177.908 430.673 177.709 431.049 177.678C432.16 177.589 432.479 178.722 433.005 180.594C433.501 182.36 434.254 185.029 435.834 187.977C437.613 191.297 440.583 196.852 444.912 196.953C447.939 197.033 451.392 194.377 452.304 191.292C452.813 189.571 452.348 188.221 451.857 186.795C451.325 185.255 450.723 183.511 451.538 181.387C452.317 179.355 454.202 177.483 456.455 176.5C458.106 175.779 459.704 175.659 460.957 176.164C463.077 177.014 463.559 179.275 464.024 181.466C464.467 183.555 464.887 185.53 466.56 186.441C467.481 186.946 468.14 186.791 470.283 186.18C471.641 185.795 473.5 185.264 476.209 184.773C479.626 184.153 482.016 184.02 483.765 183.927C486.208 183.795 487.221 183.741 488.337 182.648C491.997 178.957 490.24 165.913 488.89 161.093C488.062 157.689 487.407 156.1 486.934 154.94C486.451 153.767 486.128 152.993 486.106 151.422C486.004 145.061 490.86 140.343 493.471 137.807C493.529 137.749 493.591 137.692 493.648 137.634C490.603 138.789 484.437 142.441 481.096 149.054C479.529 152.152 477.794 157.525 478.436 165.501C478.67 168.44 479.228 170.662 479.675 172.446C480.374 175.243 480.879 177.262 479.48 179.426C477.86 181.936 474.704 183.108 472.296 183.37C469.928 183.631 467.892 183.104 466.706 181.936C464.9 180.152 465.396 177.319 465.83 174.818C466.18 172.809 466.507 170.91 465.604 170.197C464.976 169.706 464.042 170.02 462.439 170.618C460.642 171.291 458.407 172.127 455.729 171.547C450.573 170.428 446.018 164.514 445.983 158.884C445.956 154.883 448.231 152.626 451.998 148.89C453.654 147.248 455.716 145.198 458.004 142.56C462.497 137.391 464.015 134.412 465.485 131.535C466.923 128.715 468.286 126.051 472.159 121.718C479.799 112.219 487.217 107.209 494.826 106.408C502.036 105.651 509.56 108.554 517.828 115.286C520.719 117.309 522.936 119.221 524.897 120.908C528.672 124.156 531.164 126.308 534.958 126.126C535.56 126.1 535.621 126.077 537.153 125.356C538.352 124.794 540.362 123.851 544.098 122.262C546.297 121.324 548.063 120.602 549.626 119.965C552.808 118.664 555.11 117.725 558.611 115.99C563.728 113.662 566.343 111.971 566.41 110.94C566.463 110.13 564.555 108.948 562.537 107.696C559.266 105.664 554.782 102.884 551.573 97.9846C547.616 91.3454 548.112 77.6686 552.649 67.4663C554.539 63.2216 557.894 57.9412 563.157 56.8967C563.183 56.8922 563.214 56.8878 563.241 56.8834C568.052 56.4054 573.5 60.1676 574.04 64.337C574.399 67.0945 572.549 68.7588 570.207 70.8656C568.202 72.6715 565.71 74.92 563.71 78.6379C560.567 84.4849 558.845 93.2221 562.484 98.5733C563.453 99.9985 564.206 100.339 566.441 101.349C568.419 102.243 571.407 103.597 576.373 106.571C578.086 107.598 579.542 108.523 580.715 109.271C583.18 110.838 585.128 112.082 585.641 111.719C586.398 111.188 584.792 104.496 584.106 101.636C583.45 98.9141 582.866 96.6435 582.348 94.6429C580.635 88.0125 579.927 85.2639 581.645 83.8298C583.849 81.9841 588.129 84.4273 588.966 84.9319C597.402 90.0574 598.128 103.96 598.048 109.701C597.999 113.211 597.588 116.07 597.256 118.367C596.928 120.624 596.618 122.762 597.194 123.072C597.415 123.192 597.818 123.178 598.3 123.032C599.836 122.568 602.169 120.762 603.466 118.318C603.554 118.15 603.7 118.013 603.873 117.929C603.917 117.907 604.931 117.354 603.802 110.705C603.076 106.447 601.748 101.18 600.571 96.5329C598.283 87.477 597.871 85.4586 598.73 84.6663C598.898 84.5114 599.106 84.4185 599.323 84.3919C602.483 83.0242 610.269 90.6771 613.544 94.1162C617.421 98.1838 619.922 101.849 621.414 104.04C621.617 104.341 621.825 104.642 622.02 104.925C621.63 102.048 619.825 95.7494 615.341 89.752C613.354 87.0919 611.326 85.1798 609.698 83.6395C607.139 81.2228 605.294 79.4789 605.732 76.8763C606.099 74.7119 607.816 73.6762 609.481 72.6715C611.127 71.68 612.836 70.6487 613.641 68.4578C614.425 66.3244 613.765 64.7664 612.999 62.9693C612.305 61.3317 611.517 59.4771 612.035 57.1622C613.07 52.5236 618.094 50.5938 622.949 48.7304C627.137 47.1237 631.089 45.61 631.7 42.6179C632.488 38.776 627.389 34.0665 624.587 32.1146C619.869 28.826 615.412 28.7419 611.096 28.6578C606.931 28.5781 602.992 28.5029 599.69 25.3382C599.637 25.2895 599.593 25.2364 599.557 25.1744C595.189 18.3094 593.803 12.9582 595.538 9.70056C596.596 7.71765 598.703 6.63766 601.633 6.56684C601.731 6.56684 601.832 6.56684 601.934 6.56684C609.636 6.56684 621.896 13.392 628.602 24.6433C629.35 25.9224 629.93 27.1308 630.443 28.2019C631.718 30.8487 632.722 32.9423 635.383 34.5711C638.069 36.2177 640.406 36.1468 642.88 36.0672C645.501 35.9831 648.214 35.899 651.476 37.7004C658.089 41.3476 660.408 49.3014 660.961 51.6517C662.019 56.1531 661.435 60.0215 661.05 62.5798C660.877 63.7306 660.612 65.4745 660.904 65.625C661.364 65.864 663.201 63.9829 664.294 62.8543C667.18 59.8843 671.119 55.8167 676.276 56.0822C678.409 56.1929 680.135 57.0206 681.658 57.7465C683.619 58.6848 684.792 59.1805 686.058 58.5388C686.885 58.1183 687.164 57.4765 687.585 56.5071C687.894 55.7901 688.249 54.9801 688.895 54.086C692.542 49.0624 701.863 47.0131 708.078 49.8679C712.123 51.7269 713.721 55.0996 715.133 58.0784C716.377 60.6987 717.355 62.7702 719.665 63.1774C724.552 64.0316 730 56.8701 730.602 56.0468C732.475 53.5062 732.975 51.5676 733.413 49.8502C733.878 48.0266 734.32 46.3093 736.215 44.5167C740.681 40.303 749.431 39.5328 755.721 42.7993C758.952 44.4769 760.652 46.7917 762.015 48.6463C763.484 50.6469 764.33 51.6959 765.963 51.749C766.003 51.749 766.038 51.749 766.078 51.749C768.003 51.749 769.411 50.1822 770.898 48.5268C772.571 46.6634 774.479 44.5521 777.382 44.6628C779.795 44.7557 781.136 46.327 782.433 47.8452C783.752 49.3899 785.111 50.9877 787.802 51.7712C792.276 52.7892 805.887 49.0712 810.247 45.6365C812.145 44.1626 812.774 43.1225 813.38 42.1177C813.916 41.2325 814.465 40.3163 815.77 39.3292C823.007 33.8629 836.582 38.537 846.492 41.954C847.382 42.2594 848.201 42.5559 848.976 42.8348C852.959 44.2777 855.367 45.1452 858.567 44.2954C861.09 43.6226 862.612 42.2815 863.954 41.0997C865.321 39.8958 866.614 38.7583 868.433 39.1699C868.477 39.1788 868.521 39.192 868.566 39.2097C871.872 40.5287 874.227 45.2426 874.165 50.4079C874.098 55.799 871.447 60.0082 867.065 61.6769C864.228 63.496 862.378 64.3769 861.019 65.0186C859.536 65.718 858.926 66.0101 858.355 66.8776C855.734 70.8612 859.908 78.0669 859.952 78.1378C861.838 81.3467 864.29 82.9667 866.26 84.2636C868.229 85.5604 869.929 86.6847 869.907 88.8225C869.889 90.9559 868.203 91.9518 866.255 93.107C864.414 94.2003 862.117 95.5591 860.324 98.3432C858.328 101.437 857.969 104.69 857.682 107.297C857.394 109.918 857.142 112.179 855.146 112.861C853.703 113.357 852.561 112.6 851.459 111.865C850.423 111.175 849.356 110.462 847.825 110.546C844.766 110.723 841.407 113.941 840.774 117.3C840.309 119.783 841.562 121.328 843.633 123.887C845.368 126.029 847.528 128.693 849.361 132.894C852.773 139.644 853.158 154.099 850.144 162.664C848.958 166.037 847.356 168.201 845.381 169.095C845.213 169.171 845.027 169.193 844.846 169.157C839.397 168.099 835.153 157.503 833.108 151.284C830.182 142.392 828.536 132.615 829.191 128.029C829.726 124.099 830.926 120.996 831.979 118.252C833.502 114.304 834.599 111.449 833.183 108.032C833.019 107.643 831.528 104.195 829.151 103.849C827.814 103.655 826.132 104.425 824.539 105.969C821.963 108.461 820.391 112.201 820.719 115.07C820.865 116.362 821.343 117.216 821.803 118.044C822.37 119.058 822.95 120.102 822.675 121.62C822.326 123.555 820.294 126.334 812.615 128.605C805.427 130.729 799.717 130.508 795.547 130.344C791.719 130.194 789.187 130.096 787.895 131.827C787.12 132.863 787.297 133.757 787.771 135.691C788.231 137.563 788.859 140.13 788.457 143.977C787.903 149.284 785.801 153.033 784.27 155.773C782.853 158.3 782.149 159.668 782.818 160.721C783.389 161.624 784.531 161.646 786.673 161.606C788.997 161.562 791.891 161.509 795.065 163.164C798.035 164.709 800.12 167.17 801.607 169.64C799.836 162.987 799.318 159.663 800.943 158.831C801.332 158.632 801.779 158.614 802.284 158.782C805.334 159.791 812.393 169.379 817.089 178.899C820.883 186.583 823.423 194.745 824.649 203.163C824.844 204.513 824.849 204.743 824.977 216.951L825.057 224.409C825.22 239.63 825.269 244.225 821.582 247.252C819.931 248.607 818.532 248.731 817.05 248.863C815.713 248.983 814.199 249.116 811.937 250.129C806.75 252.453 803.961 256.64 802.12 259.411C800.629 261.651 799.549 263.266 797.933 262.757C797.181 262.518 796.561 261.814 796.141 260.717C795.14 258.105 795.255 253.343 797.437 249.66C798.801 247.354 800.421 246.433 802.138 245.455C803.085 244.915 804.063 244.358 805.126 243.517C812.469 238.143 816.753 212.914 814.646 202.685C813.013 194.953 808.99 188.358 806.821 187.034C806.511 186.844 806.338 186.826 806.299 186.84C805.913 187.158 805.967 189.535 806.002 191.275C806.113 196.343 806.276 204.004 801.244 210.152C801.222 210.179 801.2 210.205 801.173 210.228C797.592 213.698 789.187 222.355 788.452 227.808C787.682 232.128 789.603 235.536 791.298 238.546C792.985 241.538 794.574 244.362 793.091 247.363C792.214 249.133 790.378 250.629 788.182 251.364C786.354 251.979 784.553 251.953 783.247 251.302C781.092 250.222 780.897 247.903 780.671 245.216C780.472 242.822 780.224 239.838 778.538 236.776C776.32 232.739 771.832 229.092 767.632 227.906C765.658 227.348 763.998 227.405 762.838 228.069C761.594 228.782 760.563 230.451 760.218 232.323C759.948 233.775 760.138 235.072 760.727 235.793C761.776 237.077 764.494 236.802 766.68 236.585C768.924 236.36 770.863 236.165 771.478 237.577C772.009 238.803 770.965 239.754 769.756 240.861C768.561 241.954 767.07 243.313 766.388 245.3C765.503 247.881 766.569 250.054 768.185 253.347C769.101 255.211 770.137 257.322 771.093 260.022C773.31 264.722 774.218 269.919 773.793 274.858C776.311 278.439 778.104 281.241 778.591 282.892C780.344 287.309 780.574 289.739 780.795 292.094C781.025 294.546 781.264 297.078 783.296 302.128C784.602 305.377 785.62 307.134 787.306 310.046C788.917 312.826 791.121 316.637 794.675 323.701C798.916 332.31 802.921 340.432 795.171 345.686C795.074 345.752 794.968 345.796 794.857 345.818C794.622 345.867 794.383 345.889 794.149 345.889C788.921 345.889 783.322 334.408 781.671 330.756C781.273 329.92 780.892 329.052 780.538 328.167C778.489 332.186 775.554 336.36 771.854 340.436C764.396 348.651 753.198 356.662 745.041 356.06C734.515 355.051 725.003 341.928 721.476 333.894C719.639 330.03 718.669 326.879 718.028 324.79C717.877 324.298 717.722 323.798 717.585 323.387C717.032 325.445 716.611 330.539 718.032 336.072C718.833 339.188 720.055 341.746 720.945 343.619C722.011 345.854 722.653 347.204 721.662 348C720.781 348.709 719.785 347.992 718.523 347.084C717.081 346.044 714.903 344.477 711.88 343.849C708.109 343.07 704.245 343.76 703.842 344.862C703.621 345.469 705.307 346.69 707.091 347.983C709.875 350.001 714.075 353.046 717.868 358.172C719.161 359.712 720.471 362.005 721.98 364.652C725.428 370.689 729.704 378.178 735.484 379.05C740.659 376.036 739.871 373.154 734.484 362.664C729.938 354.715 729.483 353.068 730.443 352.165C731.461 351.209 733.063 352.258 736.932 354.803C739.357 356.397 742.376 358.38 745.78 360.163C745.82 360.181 745.855 360.208 745.89 360.23C748.524 362.142 749.635 364.032 750.617 365.701C751.295 366.847 751.932 367.936 753.016 368.923C757.053 372.012 762.869 372.632 767.508 370.463C771.341 368.671 773.633 365.289 773.797 361.182C773.797 361.133 773.806 361.084 773.815 361.035C773.921 360.531 773.886 359.424 773.749 358.039C771.124 356.53 769.07 354.626 768.229 352.48C767.517 350.652 767.37 347.841 770.743 344.814C770.849 344.716 770.978 344.65 771.119 344.614C771.363 344.552 771.85 344.517 772.337 344.982C773.664 346.257 774.899 352.413 775.4 356.897C778.932 358.721 783.442 359.863 787.062 359.801C787.08 359.801 787.093 359.801 787.111 359.801C790.223 359.92 791.785 359.455 793.595 358.911C795.043 358.477 796.685 357.986 799.31 357.707C804.904 357.114 807.892 358.194 820.471 362.744C823.578 363.868 827.101 365.143 831.435 366.674C833.586 367.436 835.409 368.073 836.976 368.617C844.386 371.207 846.147 371.818 849.201 373.854C858.151 379.807 863.374 388.017 863.538 390.058C863.577 390.536 863.383 390.819 863.214 390.978C862.444 391.691 861.718 391.014 860.276 389.659C858.036 387.566 853.875 383.662 850.25 384.627C849.064 384.941 848.431 385.658 847.701 386.486C846.855 387.442 845.895 388.526 844.023 389.071C843.39 389.332 842.655 389.407 841.858 389.345C841.748 390.793 841.628 392.474 841.504 394.435L841.464 395.112L841.301 397.308C840.393 409.586 840.088 413.72 833.843 416.331C833.754 416.367 833.661 416.389 833.568 416.398C829.509 416.694 826.314 410.923 824.596 407.811C823.029 404.974 822.494 403.009 822.1 401.575C821.688 400.056 821.436 399.145 820.298 398.056C816.793 394.705 809.494 394.276 806.595 397.246C805.201 398.675 804.953 400.787 804.736 402.646C804.519 404.496 804.316 406.244 802.78 406.66C801.598 406.983 800.766 406.156 800.036 405.425C799.398 404.792 798.677 404.071 797.592 403.774C794.866 403.022 791.192 405.142 786.677 410.077C784.34 412.627 783.535 414.397 782.884 415.818C782.203 417.31 781.614 418.602 779.706 419.912C776.776 421.926 774.143 421.718 771.593 421.514C769.305 421.333 767.145 421.165 764.693 422.572C758.762 425.98 757.682 434.833 757.527 436.572C757.221 439.976 757.894 442.039 758.611 444.225C759.439 446.744 760.289 449.35 759.62 453.936C758.855 459.154 757.031 464.134 756.951 464.342C756.425 465.767 755.907 466.967 755.495 467.927C754.521 470.184 754.11 471.22 754.539 472.004C755.371 473.531 758.899 473.858 761.971 473.398C766.72 472.11 769.685 469.574 772.558 467.117C777.48 462.912 782.565 458.561 796.118 460.535C798.477 460.938 810.419 463.421 816.164 473.292C817.842 476.173 818.289 478.492 818.687 480.537C819.152 482.941 819.519 484.839 821.781 486.995C823.41 488.548 825.017 489.288 826.57 490.005C828.606 490.943 830.532 491.828 831.678 494.351C832.519 496.201 832.249 498.782 831.753 503.465C831.483 506.014 831.178 507.988 830.935 509.568C830.439 512.764 830.302 513.902 830.961 514.534C832.165 515.69 835.091 514.773 836.02 514.362C838.64 513.202 840.203 510.604 840.792 508.564C841.256 506.957 841.194 505.492 840.628 504.646C840.123 503.894 839.273 503.717 837.932 503.491C836.494 503.252 834.706 502.951 833.546 501.238C832.143 499.171 832.28 495.878 833.847 493.895C834.896 492.567 836.135 492.346 838.012 492.005C839.141 491.802 840.544 491.545 842.416 490.978C845.975 489.898 847.758 489.354 848.816 488.106C848.834 488.084 848.852 488.062 848.869 488.039C846.112 485.388 844.598 481.843 845.731 476.204C846.581 469.897 850.272 466.728 853.844 463.669C856.681 461.235 859.364 458.938 860.709 455.113C863.533 443.628 857.704 435.005 851.534 425.874C847.395 419.753 843.115 413.419 841.801 406.213C841.801 406.196 841.796 406.178 841.792 406.16C841.247 401.69 841.77 396.688 842.934 395.245C843.275 394.82 843.646 394.705 843.899 394.683C845.213 394.559 845.598 395.998 846.51 399.477C847.307 402.509 848.511 407.094 850.826 412.529C852.543 416.637 854.88 420.647 857.354 424.887C864.901 437.829 872.704 451.209 862.024 467.139C862.01 467.157 861.997 467.175 861.984 467.192C859.939 469.79 857.921 471.118 856.137 472.291C853.999 473.694 852.454 474.708 851.64 477.395C851.016 479.453 851.206 481.228 851.392 482.941C851.569 484.583 851.737 486.154 851.122 487.672C853.003 489.168 855.402 490.399 858.009 491.735C862.891 494.236 868.424 497.073 872.239 502.602C873.567 504.589 875.776 507.891 876.581 512.662C877.037 515.367 876.851 517.394 876.688 519.182C876.488 521.338 876.334 523.037 877.312 525.312C878.586 528.282 881.264 531.252 883.513 531.075C884.752 530.978 885.429 529.898 886.846 527.468C887.673 526.047 888.705 524.276 890.214 522.249C892.467 519.226 894.016 518.022 895.981 516.5C897.778 515.105 900.013 513.37 903.665 509.573C903.678 509.559 903.687 509.551 903.701 509.537C913.677 500.296 913.628 495.396 913.558 488.619C913.54 486.973 913.522 485.269 913.646 483.374C913.673 482.985 913.952 482.657 914.332 482.569C915.456 482.312 915.948 483.472 916.625 485.078C917.612 487.42 919.104 490.956 922.569 492.886C923.614 493.466 924.561 493.745 925.402 493.993C926.721 494.378 927.969 494.745 928.695 496.139C929.399 497.489 929.554 500.11 926.283 504.916C923.689 508.723 921.219 510.507 918.356 512.574C917.023 513.539 915.642 514.53 914.053 515.853C910.313 518.961 908.516 521.289 906.777 523.542C905.081 525.737 903.461 527.835 900.244 530.243C900.819 530.393 901.425 530.553 902.072 530.721C903.466 531.088 905.037 531.5 906.817 531.951C915.116 534.049 916.094 533.961 916.744 533.894C919.679 533.616 921.188 532.536 923.096 531.172C924.654 530.061 926.42 528.8 929.293 527.658C930.948 526.999 939.654 523.86 948.383 526.653C951.715 527.72 953.667 529.189 955.385 530.482C957.186 531.836 958.611 532.912 961.161 533.107C964.773 533.385 968.592 531.739 972.501 528.216C972.864 527.888 973.426 527.919 973.749 528.282C974.076 528.645 974.045 529.207 973.682 529.53C969.402 533.39 965.14 535.187 961.024 534.868C957.956 534.634 956.186 533.301 954.314 531.894C952.707 530.686 950.883 529.313 947.838 528.335C939.685 525.724 931.501 528.68 929.943 529.3C927.27 530.362 925.601 531.557 924.123 532.611C922.082 534.067 920.321 535.329 916.913 535.656C916.005 535.745 914.978 535.842 906.383 533.664C904.595 533.213 903.019 532.797 901.62 532.429C900.39 532.106 899.301 531.819 898.336 531.58C898.301 531.602 898.27 531.624 898.234 531.646C896.583 532.845 889.373 537.356 887.518 535.337C886.39 534.107 887.939 531.982 889.603 530.066C889.643 530.017 889.692 529.973 889.745 529.938C891.657 528.517 893.724 528.645 898 529.676C901.846 527.034 903.488 524.901 905.378 522.457C907.091 520.24 909.034 517.721 912.925 514.49C914.562 513.131 916.027 512.074 917.324 511.135C920.166 509.086 922.405 507.466 924.827 503.916C927.947 499.335 927.38 497.432 927.133 496.954C926.77 496.259 926.154 496.055 924.911 495.688C924.03 495.431 922.932 495.108 921.715 494.431C918.112 492.426 916.377 488.951 915.324 486.521C915.324 487.23 915.324 487.916 915.337 488.597C915.408 495.555 915.465 501.052 904.931 510.817C901.204 514.694 898.916 516.469 897.075 517.898C895.145 519.394 893.75 520.474 891.644 523.303C890.192 525.25 889.192 526.972 888.386 528.353C886.93 530.854 885.876 532.66 883.659 532.837C880.078 533.115 876.936 528.906 875.696 526.007C874.545 523.32 874.736 521.231 874.939 519.018C875.103 517.252 875.267 515.429 874.851 512.954C874.112 508.555 872.115 505.572 870.792 503.597C867.233 498.445 861.913 495.719 857.217 493.311C854.703 492.023 852.242 490.762 850.215 489.195C850.197 489.212 850.184 489.235 850.166 489.252C848.768 490.899 846.815 491.492 842.929 492.674C840.96 493.271 839.499 493.537 838.326 493.749C836.498 494.081 835.839 494.236 835.237 494.997C834.152 496.37 834.046 498.822 835.011 500.247C835.746 501.331 836.896 501.522 838.224 501.747C839.592 501.977 841.137 502.239 842.093 503.659C842.96 504.952 843.106 506.922 842.491 509.055C841.792 511.48 839.911 514.57 836.737 515.977C836.259 516.19 832.001 517.987 829.735 515.805C828.376 514.504 828.646 512.76 829.182 509.289C829.425 507.723 829.726 505.775 829.992 503.27C830.474 498.689 830.682 496.427 830.067 495.073C829.191 493.147 827.783 492.501 825.831 491.603C824.224 490.863 822.401 490.022 820.56 488.265C817.891 485.72 817.43 483.361 816.948 480.86C816.563 478.86 816.16 476.793 814.633 474.168C809.171 464.784 797.19 462.496 795.84 462.27C783.105 460.416 778.538 464.32 773.704 468.449C770.677 471.039 767.543 473.716 762.382 475.106C762.351 475.115 762.32 475.12 762.285 475.124C758.855 475.651 754.362 475.367 752.981 472.836C752.122 471.26 752.813 469.649 753.866 467.21C754.296 466.219 754.778 465.094 755.287 463.713C755.305 463.665 757.128 458.694 757.863 453.662C758.474 449.492 757.721 447.195 756.925 444.761C756.186 442.503 755.42 440.166 755.761 436.4C755.929 434.505 757.12 424.869 763.807 421.023C766.733 419.341 769.389 419.549 771.73 419.735C774.178 419.93 776.289 420.094 778.701 418.438C780.206 417.403 780.631 416.473 781.273 415.066C781.972 413.53 782.844 411.618 785.372 408.864C787.235 406.828 792.909 400.636 798.061 402.053C799.593 402.473 800.571 403.447 801.284 404.155C801.695 404.567 802.116 404.987 802.315 404.934C802.696 404.832 802.851 403.496 802.974 402.42C803.214 400.384 803.506 397.848 805.325 395.989C808.937 392.289 817.262 392.682 821.52 396.755C823.012 398.18 823.361 399.463 823.804 401.088C824.193 402.513 824.676 404.283 826.141 406.935C827.425 409.254 830.39 414.618 833.258 414.618C833.271 414.618 833.285 414.618 833.298 414.618C838.406 412.428 838.649 409.13 839.535 397.157L839.738 394.302C839.866 392.249 839.99 390.5 840.11 389.004C838.242 388.5 836.246 387.504 834.591 386.543C826.615 381.914 817.572 373.052 816.881 366.807C816.85 366.546 816.939 366.285 817.12 366.099C818.041 365.138 819.913 365.068 822.843 365.882C829.615 367.763 841.194 374.305 842.221 378.541C842.677 379.979 842.584 381.015 842.279 384.375C842.199 385.242 842.106 386.291 842 387.566C842.553 387.61 843.022 387.557 843.376 387.402C843.412 387.384 843.452 387.371 843.487 387.362C844.895 386.964 845.581 386.189 846.373 385.295C847.178 384.383 848.09 383.352 849.794 382.901C853.676 381.869 857.598 384.839 860.218 387.185C858.169 384.074 854.119 379.236 848.219 375.314C845.346 373.402 843.806 372.867 836.388 370.277C834.821 369.728 832.993 369.091 830.837 368.33C826.495 366.798 822.972 365.519 819.86 364.395C807.591 359.96 804.674 358.906 799.491 359.455C797.03 359.716 795.539 360.164 794.1 360.597C792.223 361.159 790.448 361.691 787.058 361.558C783.429 361.593 779.162 360.633 775.577 358.968C775.643 360.009 775.639 360.832 775.559 361.305C775.346 366.064 772.686 369.981 768.256 372.052C763.024 374.5 756.451 373.792 751.906 370.291C751.888 370.277 751.87 370.26 751.852 370.246C750.551 369.069 749.808 367.807 749.086 366.586C748.157 365.006 747.192 363.372 744.894 361.691C741.438 359.876 738.401 357.88 735.954 356.273C734.462 355.295 732.815 354.21 731.908 353.781C732.293 354.998 733.674 357.694 736.033 361.81C740.752 370.99 743.584 376.509 736.091 380.727C735.927 380.82 735.741 380.856 735.555 380.834C728.743 380.063 724.136 371.999 720.436 365.515C719.019 363.036 717.682 360.695 716.487 359.278C716.474 359.265 716.465 359.247 716.452 359.234C712.814 354.317 708.901 351.475 706.042 349.404C703.302 347.416 701.487 346.102 702.169 344.238C703.147 341.56 708.75 341.379 712.229 342.1C715.62 342.804 717.983 344.504 719.546 345.632C719.723 345.761 719.913 345.898 720.099 346.026C719.896 345.539 719.608 344.933 719.338 344.367C718.417 342.432 717.151 339.781 716.31 336.497C714.628 329.937 715.279 323.241 716.465 321.505C716.802 321.014 717.191 320.873 717.457 320.842C718.621 320.704 718.988 321.891 719.714 324.254C720.343 326.295 721.29 329.375 723.082 333.146C725.933 339.639 735.073 353.316 745.187 354.286C751.737 354.777 761.926 348.722 770.54 339.237C774.603 334.757 777.706 330.19 779.684 325.892C776.568 317.022 775.537 307.032 777.258 304.748C777.63 304.257 778.161 304.027 778.719 304.12C779.733 304.288 781.216 305.474 783.712 313.189C783.725 313.229 783.734 313.268 783.743 313.313C784.376 316.982 783.592 321.333 781.574 325.958C782.074 327.313 782.641 328.667 783.274 329.999C785.956 335.939 791.046 344.482 794.335 344.097C800.297 339.923 797.738 333.908 793.091 324.475C789.563 317.464 787.372 313.684 785.774 310.923C784.11 308.046 783.008 306.142 781.654 302.778C779.525 297.485 779.277 294.825 779.033 292.249C778.812 289.912 778.604 287.703 776.931 283.498C776.922 283.472 776.909 283.445 776.904 283.414C776.564 282.228 775.271 280.117 773.443 277.448C773.129 279.138 772.646 280.776 772 282.334C769.504 288.354 764.794 292.74 758.381 295.024C754.437 296.329 750.525 296.06 747.072 295.816C743.544 295.568 740.76 295.373 739.397 296.949C737.976 298.591 737.937 302.389 739.278 308.559C740.508 313.127 742.73 315.694 744.691 317.96C746.714 320.293 748.458 322.307 748.342 325.697C748.223 329.26 745.926 333.244 742.491 335.855C740.145 337.634 737.72 338.396 735.839 337.94C735.781 337.927 735.724 337.904 735.67 337.882C732.453 336.368 727.792 329.096 724.446 323.263C724.397 323.179 724.357 323.108 724.326 323.055C724.304 323.024 724.282 322.993 724.264 322.962C722.596 320.045 721.064 319.226 718.006 317.602C715.615 316.327 712.345 314.587 707.586 311.038C702.346 307.129 699.394 304.093 697.238 301.875C694.613 299.176 693.414 297.941 690.767 297.839C690.714 297.839 690.661 297.83 690.608 297.817C683.437 296.214 667.384 315.623 663.768 330.256C663.639 330.769 663.524 331.301 663.422 331.836C666.029 331.761 670.199 332.522 671.916 335.895C672.961 337.94 672.938 340.746 671.867 343.048C671.159 344.566 670.132 345.548 668.968 345.818C668.827 345.849 668.676 345.849 668.539 345.809C663.303 344.389 660.828 340.237 661.351 333.956C659.806 334.443 658.766 335.359 657.819 336.191C656.708 337.17 655.65 338.095 654.141 337.966C650.998 337.71 650.051 333.584 648.612 327.344C647.218 321.275 645.306 312.967 640.477 305.297C638.432 302.048 630.717 291.045 617.306 285.981C611.503 283.79 607.573 283.861 603.771 283.923C599.628 283.994 595.348 284.069 588.934 281.241C583.07 278.567 577.838 274.292 574.018 271.171C571.982 269.507 569.694 267.639 568.831 267.405C568.751 267.9 568.875 269.441 570.451 274.221C572.81 279.979 578.471 287.194 586.686 288.606C589.824 289.146 592.126 288.632 594.153 288.177C596.459 287.663 598.451 287.216 600.456 288.778C604.386 291.841 604.36 299.282 601.877 304.049C599.995 307.665 597.287 308.754 591.891 310.927C589.005 312.087 585.416 313.534 580.627 315.849C576.444 317.872 573.576 319.483 571.482 320.66C567.627 322.824 566.034 323.723 563.471 322.984C559.576 321.864 558.199 318.292 556.292 313.353C554.911 309.772 553.189 305.31 549.98 300.176C543.376 289.597 534.688 282.352 532.815 282.352C532.775 282.352 532.736 282.352 532.7 282.361C532.687 282.369 532.674 282.378 532.66 282.383C532.417 283.069 533.054 286.862 538.76 297.175C543.385 305.536 549.192 314.22 554.291 320.412C562.196 330.004 565.529 330.274 566.596 329.937C566.706 329.902 566.826 329.889 566.941 329.902C570.849 330.274 574.204 328.685 576.9 327.41C579.432 326.21 581.622 325.175 583.189 326.582C586.845 329.871 580.193 341.344 579.423 342.645C577.356 346.434 572.261 351.24 566.87 356.326C559.182 363.585 550.467 371.809 549.639 378.112C549.639 378.134 549.635 378.151 549.63 378.174C549.073 380.909 549.409 382.254 550.223 385.512C550.856 388.044 551.812 391.864 552.786 398.326C553.246 400.853 553.618 404.474 554.017 408.307C554.065 408.767 554.114 409.232 554.163 409.705C555.3 409.785 556.57 409.67 558.292 409.037C561.537 407.842 563.307 405.926 565.016 404.071C566.937 401.991 568.751 400.025 572.248 399.547C575.475 399.109 579.945 400.017 582.136 403.053C585.544 407.851 581.326 417.097 576.245 424.152C571.212 431.137 564.214 437.599 559.917 436.289C559.855 436.271 559.793 436.245 559.74 436.214C555.234 433.664 553.711 422.218 552.552 411.286C552.357 411.255 552.171 411.219 551.981 411.184C550.369 410.892 548.975 410.639 546.713 411.485C544.381 412.361 541.769 414.326 533.408 429.574C530.815 434.306 529.571 436.842 528.659 438.692C527.597 440.852 527.066 441.937 525.49 444.212C521.414 450.395 511.185 463.275 496.884 463.28C494.697 463.28 492.422 462.979 490.05 462.306C488.709 462.368 486.721 461.288 483.194 453.901C479.055 445.234 474.58 431.557 471.77 421.652C470.185 416.061 468.897 410.883 468.145 407.072C467.127 401.915 467.26 400.366 467.64 399.702C468.039 395.856 468.831 392.882 469.53 390.257C470.681 385.937 471.588 382.524 470.013 377.483C469.234 374.996 468.295 373.508 467.211 371.787C465.923 369.742 464.467 367.422 462.935 362.948C461.497 358.738 461.134 355.923 460.873 353.87C460.585 351.634 460.412 350.289 459.142 348.647C456.048 344.65 450.378 344.123 438.184 343.875C425.419 343.614 418.085 343.946 413.699 344.145C408.135 344.398 406.453 344.473 403.567 342.99C403.536 342.977 403.51 342.959 403.483 342.941C394.719 337.134 389.35 327.264 388.359 315.141C387.018 298.755 393.684 281.17 405.338 270.344C407.803 267.865 410.299 265.82 412.499 264.014C416.669 260.597 419.678 258.127 419.231 255.396C418.93 253.568 417.266 252.621 415.164 251.422C412.743 250.041 409.724 248.323 408.263 244.557C406.077 238.922 408.064 231.261 412.517 228.167C415.73 225.932 419.311 226.489 422.781 227.029C426.101 227.543 429.234 228.029 431.669 225.909C433.692 223.537 434.608 221.638 434.386 220.27C434.134 218.69 432.39 217.632 430.372 216.411C428.234 215.114 425.813 213.649 424.791 211.126C424.786 211.113 424.777 211.095 424.773 211.082C424.007 208.842 424.83 207.324 425.707 205.722C426.433 204.385 427.26 202.871 427.486 200.481C427.889 196.201 426.025 193.089 424.224 190.084C422.374 187.003 420.63 184.091 422.038 180.563C422.051 180.528 422.068 180.497 422.086 180.462C422.144 180.36 422.277 180.13 422.471 179.798C423.649 177.771 427.234 171.596 427.911 169.237C427.92 169.201 427.933 169.171 427.946 169.135C430.54 163.014 418.899 148.868 405.962 142.282C404.833 146.278 401.279 149.58 396.707 150.669C392.077 151.917 387.066 150.408 384.38 148.474C382.8 147.336 381.928 146.048 381.848 144.747C381.839 144.579 381.879 144.406 381.959 144.26C386.159 136.815 394.343 135.182 404.567 139.666C404.598 136.337 402.439 133.62 398.579 132.159C395.941 131.384 394.011 132.518 391.776 133.832C389.696 135.054 387.336 136.439 384.22 136.138C384.167 136.134 384.11 136.12 384.057 136.107C379.046 134.651 376.404 130.889 373.854 127.255C373.27 126.423 372.695 125.604 372.102 124.829C371.721 125.024 371.331 125.223 370.942 125.422C363.024 129.472 357.956 130.862 354.255 131.876C350.219 132.982 347.992 133.593 345.226 136.643C342.035 140.405 340.587 144.831 339.308 148.735C337.936 152.922 336.856 156.228 334.028 157.149C331.611 157.937 328.393 156.746 323.595 153.289C323.547 153.254 323.502 153.214 323.463 153.17C311.716 140.436 313.428 126.746 315.411 110.896C315.996 106.231 316.598 101.41 316.934 96.254C318.735 71.2994 316.221 70.4628 310.149 68.4401C307.188 67.453 303.501 66.227 299.132 62.3497C299.088 62.3098 299.048 62.27 299.013 62.2213C295.883 58.0829 294.113 51.2223 297.003 46.6545C299.305 43.0207 303.695 42.4453 307.227 41.9849C310.029 41.6176 312.45 41.3033 313.057 39.7276C313.902 37.5234 311.149 33.7921 307.046 29.9856C300 34.4516 292.701 39.8692 286.664 48.0443C285.526 49.5891 284.61 50.9789 283.725 52.3244C281.277 56.0513 279.343 58.9902 274.952 61.2874C272.504 62.5666 266.007 65.2886 258.535 62.9207C255.402 61.9292 247.346 58.344 247.691 53.7497C247.926 50.6204 251.679 49.3191 256.021 47.8098C260.788 46.1544 266.193 44.2777 267.808 39.7453C268.773 37.0365 267.879 34.8101 266.927 32.4554C265.887 29.8705 264.807 27.2016 266.259 23.9484C266.268 23.9262 266.281 23.8997 266.294 23.8775C268.525 19.8674 272.854 17.1542 278.475 16.2424C286.115 15.0031 294.706 17.3313 299.88 22.0407C301.478 23.1428 304.404 25.2496 307.258 27.7637C308.949 26.7103 310.622 25.71 312.251 24.7274C317.129 21.8017 321.205 19.8763 324.485 18.3271C329.841 15.7998 332.209 14.5959 332.28 12.4713C332.403 8.74894 325.521 5.0708 321.435 3.49067C303.554 -3.43184 266.215 12.1836 254.401 27.985C250.9 32.6856 249.015 37.1029 247.355 40.9979C244.938 46.6678 242.849 51.5676 236.737 54.2321C231.222 56.6355 223.622 56.7683 221.099 53.1388C219.917 51.4348 219.926 48.8543 223.361 40.1127C225.658 34.2657 227.583 30.5522 228.858 28.0957C230.425 25.0726 230.903 24.0679 230.46 23.0985C229.584 21.1732 225.791 19.6461 221.028 19.2965C214.588 18.8229 205.563 20.5978 201.323 27.144C198.158 32.0305 197.835 38.9176 200.557 43.5252C201.934 45.8534 203.47 46.6147 205.599 47.6637C207.484 48.5932 209.834 49.7528 212.601 52.382C215.624 55.2545 217.722 58.4989 219.191 61.4777C219.727 61.3671 220.302 61.2741 220.931 61.1944C224.821 60.7031 230.921 60.8625 237.896 64.3946C242.973 65.9216 244.704 69.1173 245.257 71.5295C245.815 73.9418 245.46 76.7037 244.363 79.4081C247.355 74.4198 253.056 69.8609 259.266 67.6434C265.188 65.5277 271.039 65.7136 275.744 68.1701C281.104 71.1887 281.746 76.115 282.636 82.9269C283.499 89.5395 284.574 97.7633 290.271 108.067C291.585 110.449 293.006 112.666 294.254 114.623C297.782 120.142 300.571 124.502 298.543 128.383C297.57 130.247 296.065 130.853 294.157 131.623C292.471 132.305 290.373 133.15 287.668 135.173C284.287 137.701 282.733 139.998 281.485 141.843C280.166 143.791 279.126 145.327 276.736 145.942C273.429 146.792 269.105 145.406 265.166 142.233C260.917 138.807 258.367 134.235 258.518 130.3C258.673 126.228 261.488 123.617 263.975 121.315C266.37 119.097 267.817 117.641 267.392 115.778C267.047 114.268 265.737 113.649 262.802 112.396C259.757 111.095 255.592 109.307 250.568 105.044C250.555 105.031 250.537 105.018 250.524 105.005C247.058 101.641 246.018 101.667 245.779 101.756C245.071 102.021 244.836 104.739 244.633 107.138C244.301 111.024 243.849 116.349 241.282 120.748C238.21 125.989 233.926 127.582 229.385 129.264C224.905 130.924 220.276 132.641 215.818 137.984C212.676 141.75 207.679 149.262 209.511 157.286C210.835 163.071 215.903 168.723 222.431 171.685C226.835 173.681 231.009 174.039 233.607 172.641C235.28 171.738 235.696 170.428 236.613 167.564C237.232 165.616 238.087 162.947 239.72 159.473C243.216 152.032 251.493 138.294 257.805 139.506C261.598 140.237 263.108 145.823 264.568 151.222C265.679 155.325 266.936 159.973 268.928 160.15C270.477 160.296 272.115 157.738 273.558 155.485C275.253 152.838 276.851 150.342 279.033 150.718C281.237 151.098 281.649 153.887 282.277 158.11C282.808 161.69 283.539 166.594 285.61 171.924C288.115 178.364 291.479 182.577 293.936 185.649C296.64 189.031 298.592 191.474 297.406 194.408C296.308 197.139 293.621 197.56 290.222 198.095C286.571 198.671 282.029 199.383 277.046 203.053C274.385 205.014 270.995 209.426 264.241 218.221C261.408 221.908 259.916 224.019 258.929 225.414C257.61 227.281 257.212 227.848 255.84 228.986C251.591 232.518 248.01 233.283 244.854 233.956C241.964 234.576 239.467 235.107 237.042 237.754C234.802 240.193 234.537 242.308 234.231 244.76C233.899 247.416 233.519 250.426 230.602 254.219C228.017 257.578 225.317 259.092 223.148 260.309C220.82 261.615 219.138 262.558 218.355 265.152C217.735 267.197 218.151 268.746 218.629 270.534C219.196 272.65 219.837 275.053 218.957 278.678C218.063 282.365 215.38 287.623 212.366 287.623H212.331C212.933 288.792 213.597 289.916 214.322 290.987C216.093 291.173 218.147 291.567 220.479 292.169C220.506 292.173 220.528 292.182 220.554 292.191C226.928 294.44 231.629 298.45 232.018 300.782C232.138 301.486 231.921 302.097 231.412 302.504C230.983 302.845 229.668 303.889 223.462 301.322C219.731 299.72 216.177 296.644 213.349 292.687C209.675 292.43 208.586 293.329 208.294 293.718C207.688 294.519 208.263 295.79 208.661 296.476C211.37 301.141 221.311 307.138 230.735 305.93C233.519 305.359 235.683 304.031 237.595 302.858C239.901 301.442 241.893 300.22 243.894 301.305C247.244 303.128 247.027 309.758 246.102 313.507C245.049 317.774 242.398 321.922 238.516 325.516C241.486 324.723 244.597 324.259 247.824 324.139C260.66 323.652 274.691 328.862 283.601 337.418C289.315 342.034 291.842 345.796 294.068 349.12C296.631 352.94 298.654 355.954 304.674 359.137C308.662 361.243 311.68 361.947 314.876 362.695C318.643 363.572 322.909 364.568 329.456 367.989C337.215 372.043 345.239 376.235 345.859 382.856C346.204 386.521 344.053 388.646 341.331 391.337C338.959 393.683 336.006 396.604 333.368 401.645C330.456 407.218 330.142 411.122 329.836 414.897C329.526 418.735 329.239 422.364 326.247 427.087C323.379 431.624 320.665 432.952 317.235 434.629C314.393 436.023 310.857 437.754 306.063 441.985C293.095 457.11 260.501 505.173 263.617 524.237C264.249 529.026 265.847 532.407 267.126 535.12C268.565 538.175 269.707 540.582 268.211 542.946C266.799 545.186 263.86 545.987 260.027 545.987L260 546ZM222.697 336.399C221.94 337.125 221.205 337.887 220.493 338.683C220.466 338.714 220.439 338.741 220.408 338.767C197.357 358.548 211.636 377.452 226.751 397.467C233.399 406.271 240.277 415.375 243.677 424.537C247.116 434.257 245.425 441.003 243.088 450.338C241.442 456.906 239.392 465.085 238.418 476.855C237.099 492.771 238.396 505.784 242.504 517.805C244 522.192 245.969 526.795 247.762 530.119C250.798 535.745 252.078 535.528 252.091 535.523C252.839 535.355 252.95 531.128 253.034 528.043C253.122 524.785 253.228 520.736 253.768 516.216C255.822 499.078 262.851 486.358 270.986 471.632C275.713 463.072 279.453 457.782 282.18 453.923C286.15 448.301 287.965 445.734 287.991 440.188C288.04 430.429 282.534 423.201 273.421 411.224C264.298 399.238 254.291 390.549 246.987 384.206C242.699 380.484 238.936 377.443 235.913 375.004C227.287 368.038 222.958 364.541 223.077 358.734C223.175 354.055 226.074 350.86 228.628 348.045C231.142 345.274 232.647 343.468 231.97 341.317C231.129 338.648 227.481 337.679 223.254 336.554C223.069 336.506 222.883 336.457 222.697 336.404V336.399ZM888.917 534.147H888.948C889.984 534.147 893.087 532.912 895.964 531.071C893.388 530.535 891.962 530.548 890.847 531.341C889.417 533 889.023 533.815 888.917 534.151V534.147ZM843.514 405.956C844.766 412.786 848.936 418.956 852.968 424.918C859.089 433.974 865.419 443.344 862.382 455.614C862.378 455.64 862.369 455.667 862.36 455.693C860.864 459.991 857.863 462.563 854.964 465.046C851.49 468.024 848.205 470.839 847.453 476.501C847.453 476.518 847.448 476.54 847.444 476.558C846.515 481.144 847.519 484.109 849.657 486.389C849.856 485.45 849.746 484.41 849.613 483.166C849.418 481.36 849.197 479.32 849.927 476.917C850.927 473.615 852.977 472.269 855.146 470.848C856.81 469.755 858.695 468.52 860.55 466.161C870.584 451.165 863.068 438.281 855.805 425.817C853.411 421.709 850.936 417.465 849.175 413.255C846.811 407.709 845.585 403.049 844.775 399.964C844.492 398.892 844.204 397.799 843.965 397.091C843.496 398.574 843.044 402.039 843.523 405.961L843.514 405.956ZM560.501 434.647C563.351 435.368 569.592 430.358 574.784 423.143C579.648 416.393 583.358 407.891 580.671 404.111C578.989 401.778 575.271 400.946 572.465 401.327C569.597 401.716 568.14 403.296 566.295 405.297C564.529 407.209 562.524 409.378 558.881 410.723C557.026 411.41 555.57 411.564 554.326 411.516C555.358 421.103 556.876 432.434 560.496 434.647H560.501ZM818.687 367.201C819.781 372.654 828.208 380.856 835.44 385.052C837.229 386.092 838.862 386.836 840.216 387.243C840.313 386.057 840.406 385.069 840.477 384.251C840.774 380.975 840.845 380.196 840.486 379.085C840.477 379.059 840.473 379.037 840.464 379.01C839.734 375.801 829.031 369.485 822.33 367.622C820.329 367.064 819.21 367.059 818.687 367.201ZM771.341 346.686C769.672 348.403 769.167 350.143 769.84 351.864C770.402 353.307 771.708 354.648 773.434 355.799C772.934 352.258 772.067 348.08 771.341 346.681V346.686ZM663.13 333.646C662.656 338.05 663.604 342.534 668.734 344.057C669.278 343.835 669.827 343.207 670.239 342.326C670.938 340.83 671.23 338.52 670.314 336.727C668.924 334.001 665.237 333.509 663.13 333.651V333.646ZM69.6403 121.784C69.9413 121.784 70.2467 121.789 70.5521 121.802C81.436 122.271 91.3418 131.013 95.5023 139.409C97.5959 143.636 97.5295 146.486 97.4366 150.43C97.3702 153.281 97.2861 156.826 97.9456 162.12C99.1937 172.127 101.748 177.421 104.001 182.09C106.222 186.694 108.32 191.04 108.573 198.79C108.821 206.315 107.143 210.307 105.523 214.167C103.899 218.035 102.363 221.691 102.673 228.879C103.098 238.807 107.063 246.208 114.964 260.956C122.825 275.637 127.57 284.498 137.201 293.174C144.504 300.034 156.588 306.191 169.379 312.711C177.068 316.628 185.021 320.682 191.957 324.949C196.609 327.857 198.968 329.601 200.535 330.756C202.288 332.053 202.947 332.535 204.753 333.124C208.082 334.209 211.853 334.514 215.77 334.08C212.99 332.779 210.525 330.911 208.998 327.87C207.905 325.693 207.736 323.781 207.586 322.09C207.409 320.071 207.272 318.478 205.63 316.898C203.673 315.012 201.358 314.884 199.119 314.76C196.963 314.641 194.732 314.517 193.179 312.706C190.125 309.148 192.617 302.624 194.622 297.383C195.387 295.378 196.534 292.381 196.295 291.642C195.812 291.713 194.52 292.669 193.373 293.519C191.01 295.267 187.442 297.905 182.383 299.968C177.621 301.906 172.694 303.911 169.707 301.619C168.304 300.543 167.467 298.582 167.286 295.953C166.94 290.854 169.251 283.007 174.337 277.868C174.354 277.85 174.372 277.833 174.394 277.815C183.401 270.193 190.74 270.295 198.078 271.118C198.123 271.123 198.163 271.131 198.202 271.14C199.53 271.486 202.978 272.663 206.289 276.106C206.674 276.509 207.028 276.908 207.351 277.301C206.975 273.721 207.303 270.259 208.356 267.188C209.941 262.562 212.481 260.725 215.172 258.782C217.779 256.901 220.47 254.954 222.967 250.151C225.981 244.349 225.954 239.635 225.932 235.076C225.91 230.561 225.888 226.303 228.916 221.744C233.417 214.972 241.601 213.361 246.492 212.401C247.66 212.171 249.055 211.896 249.727 211.635C248.572 211.184 245.129 210.909 241.787 210.639C235.289 210.117 225.468 209.333 214.486 206.572C205.408 204.288 201.252 202.128 197.233 200.038C193.325 198.007 189.633 196.086 181.472 194.386C169.937 191.983 155.353 191.288 140.41 192.434C135.962 192.775 132.478 193.222 129.677 193.581C123.197 194.408 119.944 194.824 116.593 192.257C112.224 188.907 112.162 183.887 112.083 176.938C112.021 171.932 111.95 165.7 110.365 157.897C108.325 147.832 105.355 142.897 102.735 138.542C100.092 134.146 97.8084 130.349 97.3657 122.758C96.8744 114.397 98.8087 105.084 102.664 97.2012C106.829 88.6853 112.716 82.9092 119.24 80.9395C125.33 79.1027 130.172 81.028 134.855 82.8915C139.578 84.7726 144.04 86.5475 149.431 84.1264C149.479 84.1042 149.532 84.0865 149.59 84.0732C150.617 83.8298 152.564 81.6698 154.835 78.8282C150.559 78.0183 147.474 78.0537 144.703 78.0847C138.286 78.1599 133.651 78.2086 121.28 67.307C114.309 61.5751 111.175 57.9545 108.883 55.3077C106.833 52.9397 105.479 51.3772 102.54 49.7086C91.1072 43.2243 72.8891 44.9328 68.3346 52.9175C66.2809 56.5204 67.4981 60.9377 68.5736 64.8327C69.6713 68.8074 70.707 72.5564 68.1753 74.9598C65.5505 77.4473 61.4741 76.2921 57.1541 75.066C52.905 73.8621 48.5143 72.6139 45.7169 74.9908C44.1943 76.2832 43.1808 78.6158 43.0037 81.2228C42.8355 83.7014 43.4419 85.9721 44.6237 87.2999C46.0268 88.8712 48.2487 89.0969 50.2051 89.3005C52.0463 89.4909 53.7858 89.6679 54.2506 91.1684C54.8437 93.076 52.697 94.758 48.7976 97.8076C48.0274 98.4096 47.1864 99.0691 46.2879 99.7905C38.1128 106.354 34.0098 109.648 33.6291 112.781C33.2839 115.601 35.2801 117.522 37.3869 119.558C39.3831 121.483 41.4457 123.475 41.3041 126.29C40.95 133.407 26.441 137.718 14.7826 141.179C9.68362 142.693 1.97769 144.982 1.76081 146.239C1.99539 147.487 10.2369 150.412 20.8243 148.974C33.6026 147.234 41.3837 139.936 48.2531 133.5C54.6666 127.489 60.7349 121.802 69.6403 121.802V121.784ZM196.383 289.858C196.711 289.858 197.016 289.951 197.308 290.151C198.875 291.222 197.844 293.922 196.281 298.011C194.542 302.562 192.165 308.789 194.529 311.551C195.591 312.79 197.193 312.879 199.22 312.99C201.664 313.122 204.43 313.277 206.864 315.623C208.98 317.664 209.17 319.837 209.352 321.935C209.494 323.541 209.635 325.201 210.578 327.074C212.322 330.544 215.633 332.314 219.178 333.522C221.449 333.036 223.741 332.314 226.003 331.363C228.389 329.672 230.938 328.269 233.629 327.158C239.242 323.214 243.066 318.235 244.332 313.091C245.328 309.046 245.031 303.973 243 302.867C241.951 302.296 240.663 303.026 238.476 304.372C236.533 305.567 234.116 307.05 231.009 307.678C230.987 307.678 230.969 307.687 230.947 307.687C230.013 307.807 229.075 307.864 228.141 307.864C218.793 307.864 209.83 302.106 207.081 297.37C206.01 295.528 205.922 293.851 206.833 292.656C207.732 291.47 209.476 290.872 212.039 290.872H212.087C211.361 289.695 210.697 288.46 210.109 287.172C209.316 285.441 208.688 283.684 208.219 281.927C207.533 280.519 206.563 278.935 205.014 277.324C202.062 274.261 199.039 273.19 197.817 272.862C190.904 272.092 183.994 272.012 175.567 279.134C170.866 283.901 168.733 291.133 169.052 295.825C169.193 297.901 169.809 299.459 170.782 300.207C172.964 301.88 177.612 299.99 181.715 298.317C186.57 296.343 190.032 293.78 192.32 292.085C194.099 290.77 195.343 289.85 196.374 289.85L196.383 289.858ZM778.524 306.023C777.754 307.537 778.077 315.22 780.671 323.462C781.981 319.89 782.45 316.566 781.972 313.715C780.091 307.913 778.932 306.403 778.524 306.023ZM215.748 292.992C218.182 296.02 221.077 298.405 224.109 299.707C228.805 301.65 230.057 301.238 230.243 301.15C230.301 300.247 226.809 296.321 219.961 293.895C218.35 293.479 216.956 293.191 215.752 292.997L215.748 292.992ZM209.799 281.117C210.242 282.024 210.574 282.865 210.866 283.604C211.423 285.021 211.764 285.822 212.242 285.87C213.61 286.012 216.159 282.538 217.195 278.28C217.965 275.093 217.412 273.017 216.876 271.012C216.372 269.131 215.854 267.188 216.62 264.656C217.611 261.381 219.758 260.177 222.241 258.782C224.374 257.587 226.795 256.229 229.159 253.157C231.784 249.744 232.116 247.106 232.434 244.557C232.753 242.034 233.081 239.427 235.696 236.576C238.507 233.514 241.393 232.898 244.442 232.243C247.545 231.579 250.75 230.893 254.667 227.64C255.858 226.653 256.163 226.219 257.442 224.409C258.438 223.001 259.938 220.877 262.793 217.159C269.649 208.231 273.089 203.752 275.952 201.641C281.286 197.715 286.27 196.931 289.904 196.36C293.25 195.834 295.025 195.48 295.719 193.762C296.481 191.868 295.215 190.155 292.506 186.769C289.979 183.604 286.513 179.275 283.91 172.579C281.768 167.064 281.02 162.044 280.476 158.38C280.02 155.299 279.622 152.634 278.683 152.475C277.67 152.302 276.187 154.604 274.996 156.454C273.199 159.26 271.34 162.159 268.72 161.925C265.498 161.637 264.192 156.808 262.807 151.696C261.55 147.049 260.124 141.777 257.415 141.255C252.852 140.374 245.221 151.824 241.269 160.239C239.684 163.611 238.888 166.108 238.246 168.117C237.281 171.145 236.697 172.973 234.395 174.216C231.319 175.876 226.552 175.54 221.648 173.318C216.066 170.786 209.485 165.355 207.736 157.702C205.736 148.934 211.06 140.887 214.411 136.873C219.169 131.168 224.246 129.286 228.721 127.627C233.138 125.989 236.953 124.573 239.702 119.876C242.066 115.818 242.482 110.936 242.818 107.005C243.128 103.389 243.349 100.773 245.106 100.114C246.563 99.5692 248.47 100.618 251.684 103.73C256.495 107.811 260.514 109.528 263.448 110.785C266.383 112.042 268.507 112.949 269.065 115.402C269.738 118.358 267.498 120.434 265.126 122.629C262.784 124.798 260.359 127.047 260.235 130.384C260.107 133.77 262.404 137.789 266.224 140.874C269.676 143.658 273.513 144.951 276.244 144.247C277.984 143.8 278.732 142.698 279.967 140.87C281.219 139.015 282.937 136.479 286.557 133.775C289.448 131.615 291.758 130.681 293.444 129.999C295.197 129.291 296.255 128.866 296.928 127.582C298.481 124.608 296.065 120.828 292.719 115.596C291.453 113.618 290.019 111.374 288.677 108.944C282.817 98.3476 281.671 89.5794 280.834 83.1792C279.98 76.6417 279.414 72.3174 274.855 69.7458C269.415 66.9086 263.674 67.9532 259.815 69.3297C253.144 71.711 247.12 76.9294 244.823 82.3072C244.81 82.3382 244.797 82.3692 244.779 82.4002C241.141 88.7871 240.185 94.8731 239.485 99.3169C238.835 103.447 238.365 106.43 235.958 107.018C234.103 107.47 232.846 106.067 231.518 104.575C230.071 102.955 228.433 101.118 225.543 100.534C222.506 99.9233 220.262 101.18 217.886 102.508C215.332 103.938 212.689 105.416 209.016 104.664C206.09 104.066 204.554 102.442 203.2 101.008C201.889 99.6179 200.756 98.4184 198.481 98.1882C195.919 97.9315 194.188 99.1443 192.355 100.432C190.434 101.782 188.452 103.172 185.508 102.911C182.41 102.637 180.777 100.702 178.072 97.5022C176.948 96.1699 175.545 94.5101 173.735 92.6069C167.941 86.5121 163.36 81.6964 156.999 79.2709C156.92 79.2532 156.836 79.231 156.756 79.2133C153.72 83.0774 151.648 85.3126 150.077 85.7508C144.035 88.433 139.029 86.4412 134.191 84.5159C129.792 82.7631 125.242 80.9528 119.744 82.6126C106.448 86.6271 98.2067 106.925 99.1274 122.629C99.5478 129.787 101.619 133.239 104.248 137.608C106.94 142.087 109.994 147.159 112.096 157.521C113.712 165.488 113.787 171.813 113.849 176.894C113.933 183.821 113.982 188.004 117.669 190.832C120.439 192.957 123.077 192.62 129.451 191.806C132.27 191.447 135.78 190.996 140.273 190.651C155.379 189.491 170.136 190.195 181.83 192.634C190.226 194.382 194.024 196.36 198.043 198.45C201.973 200.494 206.037 202.606 214.911 204.836C225.746 207.563 235.48 208.342 241.92 208.855C248.789 209.404 251.631 209.634 251.772 211.529C251.892 213.122 249.984 213.498 246.828 214.118C241.911 215.087 234.475 216.548 230.381 222.705C227.65 226.812 227.667 230.628 227.694 235.049C227.716 239.599 227.747 244.76 224.529 250.953C221.842 256.127 218.846 258.296 216.204 260.203C213.641 262.053 211.428 263.656 210.025 267.75C208.568 271.995 208.648 276.66 209.786 281.108L209.799 281.117ZM757.288 222.953C757.226 223.103 757.124 223.232 756.996 223.329C752.308 226.812 752.255 234.319 752.237 236.784C752.237 236.86 752.229 236.939 752.206 237.01C750.604 242.897 761.479 257.897 769.42 268.852C770.354 270.14 771.248 271.375 772.089 272.543C772.098 268.573 771.208 264.505 769.438 260.765C769.424 260.739 769.411 260.708 769.402 260.681C768.477 258.061 767.459 255.985 766.561 254.157C764.817 250.603 763.551 248.031 764.679 244.756C765.507 242.344 767.251 240.75 768.526 239.586C768.986 239.166 769.597 238.608 769.765 238.311C769.305 238.13 767.826 238.276 766.822 238.378C764.215 238.639 760.97 238.967 759.319 236.944C758.394 235.811 758.076 234.018 758.443 232.035C758.89 229.636 760.222 227.543 761.926 226.569C763.511 225.666 765.635 225.551 768.079 226.237C772.775 227.56 777.591 231.469 780.056 235.957C781.919 239.347 782.185 242.538 782.402 245.106C782.623 247.744 782.796 249.151 784.004 249.757C784.88 250.196 786.217 250.182 787.585 249.727C789.32 249.147 790.807 247.952 791.471 246.615C792.542 244.455 791.298 242.246 789.723 239.453C787.974 236.346 785.797 232.482 786.669 227.574C787.443 221.842 795.255 213.512 799.872 209.032C804.457 203.394 804.302 196.148 804.201 191.354C804.125 187.915 804.077 185.64 805.803 185.171C806.387 185.012 807.024 185.144 807.71 185.565C810.53 187.287 814.668 194.453 816.341 202.367C818.541 213.051 814.168 239.113 806.161 244.968C805.019 245.876 803.935 246.495 802.974 247.04C801.341 247.969 800.049 248.704 798.92 250.607C796.906 254.011 797.026 258.225 797.752 260.132C798.017 260.827 798.3 261.08 798.424 261.115C798.752 261.226 799.92 259.504 800.602 258.477C802.558 255.538 805.519 251.094 811.172 248.562C813.703 247.429 815.447 247.274 816.85 247.15C818.258 247.027 819.187 246.942 820.414 245.933C823.445 243.446 823.397 239.046 823.242 224.48L823.162 217.022C823.034 204.929 823.034 204.699 822.852 203.469C821.657 195.236 819.17 187.247 815.461 179.736C810.286 169.25 803.51 161.071 801.744 160.522C801.262 162.005 803.222 169.073 804.072 172.154C805.59 177.633 805.86 178.62 804.736 179.001C803.74 179.333 803.399 178.377 802.828 176.792C801.753 173.791 799.509 167.542 794.211 164.784C791.435 163.341 788.789 163.386 786.669 163.43C784.478 163.47 782.415 163.509 781.282 161.721C780.016 159.725 781.193 157.623 782.685 154.958C784.225 152.209 786.142 148.788 786.655 143.844C787.023 140.303 786.461 138.01 786.009 136.165C785.535 134.23 785.124 132.562 786.434 130.813C788.289 128.344 791.343 128.459 795.574 128.622C799.624 128.782 805.161 128.994 812.07 126.954C819.515 124.754 820.719 122.302 820.892 121.35C821.055 120.456 820.719 119.859 820.214 118.951C819.719 118.062 819.103 116.955 818.917 115.313C818.47 111.352 820.776 107.151 823.264 104.743C825.287 102.787 827.451 101.862 829.368 102.141C832.643 102.623 834.449 106.607 834.776 107.399C836.463 111.471 835.13 114.928 833.59 118.934C832.568 121.585 831.413 124.586 830.904 128.317C830.279 132.668 831.899 142.109 834.75 150.771C837.888 160.309 841.646 166.466 844.868 167.391C846.258 166.625 847.484 164.811 848.431 162.115C851.264 154.055 850.919 139.989 847.727 133.708C847.719 133.69 847.71 133.677 847.705 133.659C845.97 129.667 843.89 127.1 842.217 125.037C840.07 122.39 838.375 120.301 838.99 117.008C839.769 112.865 843.828 109.032 847.679 108.811C849.79 108.692 851.233 109.652 852.392 110.422C853.388 111.086 853.933 111.422 854.521 111.219C855.411 110.913 855.606 109.537 855.871 107.134C856.164 104.487 856.566 100.857 858.788 97.4137C860.811 94.2755 863.409 92.7352 865.308 91.611C867.132 90.531 868.079 89.9202 868.092 88.8358C868.101 87.7115 867.118 87.0122 865.237 85.7729C863.228 84.445 860.47 82.6303 858.377 79.0673C858.182 78.7353 853.605 70.8302 856.828 65.9349C857.673 64.6513 858.629 64.1998 860.214 63.4474C861.537 62.8188 863.352 61.9602 866.136 60.1676C866.189 60.1322 866.246 60.1056 866.308 60.0835C871.677 58.0873 872.319 52.6564 872.346 50.4168C872.399 46.0614 870.504 41.9982 867.928 40.9094C867.061 40.7456 866.348 41.3343 865.078 42.4541C863.661 43.7023 861.9 45.2514 858.974 46.0304C855.234 47.0263 852.335 45.9773 848.325 44.5256C847.559 44.2511 846.749 43.9546 845.868 43.6536C836.33 40.3694 823.273 35.8724 816.789 40.7677C815.757 41.5467 815.354 42.2151 814.85 43.0561C814.19 44.1493 813.447 45.3842 811.291 47.0573C806.449 50.8727 792.338 54.6791 787.337 53.5151C787.319 53.5151 787.306 53.5062 787.293 53.5018C784.079 52.5723 782.397 50.5982 781.047 49.0137C779.808 47.5619 778.914 46.5129 777.276 46.4509C775.196 46.3624 773.731 48.0001 772.177 49.7263C770.535 51.5499 768.685 53.6257 765.87 53.5328C763.298 53.4487 761.962 51.634 760.55 49.7086C759.231 47.9116 757.73 45.8711 754.867 44.3839C749.192 41.4361 741.354 42.0779 737.392 45.818C735.87 47.2565 735.524 48.602 735.091 50.3017C734.635 52.081 734.068 54.2941 731.992 57.1091C730.965 58.4989 725.858 65.0275 720.444 65.0275C720.073 65.0275 719.701 64.9965 719.325 64.9301C716.116 64.368 714.845 61.6858 713.5 58.8442C712.154 56.007 710.769 53.0725 707.308 51.4835C701.872 48.9871 693.445 50.7974 690.293 55.135C689.762 55.8698 689.466 56.5558 689.178 57.2198C688.709 58.2997 688.226 59.4151 686.832 60.1277C684.73 61.2033 682.765 60.265 680.866 59.3576C679.423 58.6671 677.936 57.9589 676.152 57.8616C671.814 57.6314 668.326 61.2166 665.534 64.098C663.382 66.3111 661.687 68.0638 660.049 67.2052C658.638 66.466 658.903 64.7309 659.266 62.3275C659.656 59.7559 660.187 56.2372 659.204 52.0677C658.695 49.8989 656.562 42.5603 650.591 39.2629C647.749 37.696 645.395 37.7712 642.903 37.8509C640.278 37.935 637.565 38.0191 634.422 36.0982C631.315 34.1949 630.155 31.7826 628.81 28.9853C628.287 27.8965 627.743 26.7678 627.039 25.5595C620.851 15.189 609.135 8.35501 601.899 8.35501C601.81 8.35501 601.722 8.35501 601.633 8.35501C600.062 8.39042 597.99 8.80205 597.056 10.5548C595.662 13.1618 597.048 17.9907 600.947 24.152C603.736 26.7678 607.144 26.8342 611.083 26.9095C615.447 26.9935 620.391 27.0865 625.552 30.6805C626.482 31.3268 634.581 37.1649 633.386 42.9941C632.581 46.9334 627.982 48.695 623.534 50.4035C619.112 52.0987 614.54 53.8559 613.712 57.565C613.318 59.3266 613.933 60.7695 614.58 62.2966C615.376 64.1732 616.279 66.2978 615.252 69.0863C614.234 71.8659 612.079 73.1628 610.344 74.2073C608.675 75.2121 607.644 75.8937 607.423 77.1906C607.153 78.7884 608.348 80.0012 610.857 82.3736C612.535 83.9582 614.619 85.9278 616.7 88.7119C622.387 96.3116 624.202 104.863 623.724 106.837C623.618 107.275 623.396 107.581 623.069 107.74C622.06 108.231 621.427 107.302 619.891 105.058C618.426 102.915 615.978 99.3258 612.203 95.3599C611.335 94.4482 608.263 91.2879 605.103 88.7827C601.332 85.7994 600.208 85.9499 600.009 86.0163C600.022 87.3884 601.19 92.0049 602.231 96.1168C605.466 108.917 607.418 117.553 604.855 119.381C603.47 121.85 600.943 124.081 598.761 124.741C597.8 125.028 596.95 124.993 596.3 124.639C594.644 123.736 594.967 121.505 595.454 118.124C595.777 115.875 596.185 113.082 596.229 109.683C596.304 104.248 595.658 91.1064 588.001 86.4545C586.075 85.2816 583.574 84.4937 582.733 85.1975C581.875 85.9145 582.68 89.035 584.017 94.2091C584.535 96.2186 585.124 98.4937 585.779 101.229C588.014 110.55 587.961 112.232 586.606 113.18C585.128 114.211 583.433 113.135 579.715 110.772C578.493 109.993 577.103 109.112 575.413 108.098C570.535 105.177 567.605 103.849 565.662 102.968C563.369 101.933 562.218 101.41 560.97 99.5736C556.916 93.6116 558.717 84.1087 562.103 77.8058C564.245 73.8134 566.87 71.4543 568.973 69.5555C571.274 67.484 572.46 66.3199 572.235 64.5672C571.819 61.3759 567.215 58.2909 563.404 58.6406C559.895 59.362 556.632 62.748 554.211 68.1878C549.949 77.7615 549.404 90.9781 553.016 97.0507C555.986 101.592 560.28 104.252 563.409 106.195C566.211 107.935 568.233 109.187 568.114 111.055C567.99 112.954 565.604 114.729 559.306 117.588C555.774 119.336 553.45 120.288 550.232 121.603C548.679 122.24 546.917 122.957 544.73 123.891C541.026 125.467 539.034 126.401 537.848 126.963C536.281 127.697 535.953 127.852 534.984 127.897C530.478 128.113 527.632 125.653 523.684 122.253C521.75 120.589 519.559 118.703 516.731 116.721C516.713 116.707 516.695 116.694 516.677 116.681C508.786 110.245 501.677 107.461 494.954 108.169C487.832 108.917 480.804 113.72 473.469 122.846C473.461 122.86 473.447 122.868 473.438 122.882C469.703 127.056 468.393 129.623 467.003 132.34C465.485 135.315 463.913 138.387 459.284 143.72C456.951 146.407 454.862 148.478 453.189 150.142C449.635 153.67 447.678 155.613 447.7 158.871C447.731 163.656 451.71 168.874 456.052 169.812C458.217 170.281 460.102 169.578 461.767 168.958C463.533 168.299 465.201 167.674 466.64 168.803C468.379 170.166 467.941 172.685 467.521 175.119C467.144 177.292 466.75 179.541 467.897 180.674C468.689 181.458 470.243 181.807 472.053 181.608C474.572 181.334 476.886 180.099 477.944 178.461C478.927 176.938 478.568 175.495 477.909 172.871C477.449 171.021 476.873 168.723 476.625 165.638C475.952 157.251 477.803 151.554 479.471 148.252C483.689 139.909 492.086 135.788 494.874 135.479C495.118 135.452 495.852 135.368 496.286 135.89C497.021 136.78 496.131 137.643 494.662 139.073C492.245 141.423 487.744 145.796 487.837 151.391C487.854 152.626 488.08 153.17 488.532 154.263C489.005 155.405 489.718 157.136 490.568 160.641C491.86 165.244 494.033 179.373 489.55 183.901C487.947 185.468 486.398 185.552 483.827 185.689C482.127 185.782 479.799 185.906 476.492 186.508C473.872 186.986 472.057 187.499 470.734 187.875C468.508 188.508 467.277 188.858 465.679 187.986C463.294 186.685 462.745 184.104 462.258 181.829C461.855 179.935 461.505 178.302 460.262 177.801C459.465 177.483 458.323 177.598 457.128 178.12C455.322 178.908 453.764 180.439 453.158 182.02C452.574 183.542 452.998 184.782 453.494 186.216C454.03 187.765 454.636 189.526 453.968 191.788C452.83 195.634 448.639 198.79 444.837 198.72C439.481 198.591 436.201 192.47 434.24 188.809C432.572 185.689 431.788 182.909 431.27 181.072C431.195 180.798 431.111 180.51 431.031 180.245C430.62 181.581 430.252 184.166 430.779 187.057C431.439 190.69 433.2 192.824 434.904 194.886C436.684 197.038 438.521 199.26 438.658 202.916C438.737 205 438.228 206.563 437.857 207.7C437.436 208.984 437.33 209.435 437.68 209.873C438.432 210.825 440.486 210.374 442.659 209.891C445.514 209.263 448.745 208.55 450.954 210.555C453.366 212.87 453.476 217.27 452.631 221.271C453.401 218.633 454.919 215.911 457.292 214.056C460.417 211.613 463.48 211.94 467.025 212.326C470.141 212.662 473.673 213.038 478.489 211.927C482.406 211.02 491.949 208.103 496.007 200.565C498.482 195.971 498.052 191.186 497.742 187.694C497.468 184.635 497.251 182.219 499.154 181.303C501.23 180.302 503.125 182.325 505.754 185.131C508.817 188.402 513.008 192.877 519.493 195.033C523.348 196.312 525.68 195.989 528.916 195.542C532.302 195.072 536.516 194.488 544.106 195.387C552.348 196.36 560.873 197.37 564.445 203.699C566.87 207.997 566.069 213.105 565.728 215.287C565.157 218.934 563.967 220.762 562.918 222.377C562.032 223.736 561.267 224.913 561.01 227.06C561.01 227.096 561.001 227.131 560.992 227.166C559.846 231.818 565.117 239.772 570.659 244.889C574.855 248.766 578.073 250.116 579.449 249.74C580.777 248.917 581.109 245.159 580.131 241.751C579.21 238.537 577.391 237.019 575.634 235.55C573.863 234.067 572.031 232.535 571.456 229.472C571.022 227.149 571.584 225.422 572.128 223.749C572.766 221.802 573.368 219.961 572.642 216.924C572.522 216.429 572.46 216.274 572.115 215.433C571.841 214.769 571.425 213.76 570.712 211.923C567.853 204.566 567.189 202.796 567.565 201.836C568.605 199.175 572.42 199.366 577.249 199.605C582.587 199.875 589.231 200.207 592.936 196.422C594.994 194.32 595.06 192.129 595.14 189.588C595.215 187.088 595.304 184.25 597.614 181.519C604.625 173.225 622.923 176.39 633.674 181.285C638.6 183.529 640.871 185.556 643.279 187.703C645.749 189.907 648.307 192.191 654.158 195.068C659.828 197.856 662.988 198.45 666.33 199.078C669.552 199.684 672.881 200.309 678.533 202.929C678.555 202.938 678.573 202.951 678.595 202.96C684.416 206.231 688.558 209.108 691.887 211.418C701.567 218.137 704.484 220.169 723.556 214.685C723.569 214.685 723.587 214.676 723.6 214.671C739.441 210.984 740.849 208.506 743.385 192.965C745.802 180.161 751.6 172.34 759.718 170.932C768.875 169.343 778.971 176.288 786.726 189.513C788.877 193.205 792.613 210.329 785.358 216.597C781.561 220.009 772.89 220.828 765.923 221.483C762.524 221.806 757.872 222.245 757.274 222.948L757.288 222.953ZM456.77 248.323C457.305 248.323 457.863 248.381 458.438 248.509C460.749 249.027 461.603 250.275 462.891 252.165C463.878 253.617 465.232 255.6 467.906 258.176C472.239 262.35 476.501 264.452 484.995 268.644C492.962 272.446 494.405 272.22 494.657 272.056C494.777 271.786 494.365 270.516 494.117 269.759C493.546 268.007 492.9 266.015 493.631 264.359C493.657 264.302 493.684 264.249 493.723 264.2C495.259 262.053 498.858 262.885 506.024 264.541C508.733 265.169 511.804 265.878 515.469 266.599C527.061 268.887 529.133 268.206 530.496 267.161C532.209 265.847 533.461 263.417 533.767 260.818C534.006 258.774 533.621 256.954 532.709 255.83C531.784 254.688 530.562 254.569 525.539 254.237C523.945 254.131 521.967 254.002 519.55 253.794C507.865 252.794 506.396 251.727 505.493 250.222C503.501 246.911 505.648 241.565 508.781 238.511C513.752 233.66 521.737 234.27 527.566 234.722C531.496 235.023 534.595 235.709 537.086 236.262C540.844 237.094 543.128 237.599 544.974 236.147C546.789 233.996 547.576 232.372 547.315 231.314C547.001 230.061 545.036 229.282 542.956 228.454C540.428 227.454 537.565 226.317 536.17 223.842C534.763 221.359 535.028 218.558 535.201 216.703C535.232 216.389 535.267 216.017 535.281 215.698C535.108 215.928 534.922 216.194 534.763 216.42C533.758 217.858 532.244 220.036 529.695 220.717C527.455 221.319 525.8 220.403 524.339 219.593C523.042 218.876 521.812 218.195 520.121 218.38C516.173 218.969 510.538 226.281 505.09 237.94C503.974 240.653 503.359 242.795 502.868 244.512C502.08 247.257 501.606 248.912 499.814 249.43C496.397 250.426 492.48 245.482 491.006 243.623C488.939 241.02 488.226 239.113 487.474 237.094C487.031 235.912 486.575 234.691 485.805 233.266C481.853 225.958 474.545 221.961 473.036 222.129C472.907 223.041 474.319 226.609 476.683 229.977C478.405 232.434 480.073 233.854 481.41 234.992C483.11 236.439 484.455 237.586 484.707 239.83C485.008 242.547 483.499 245.322 481.87 246.872C480.742 247.943 479.569 248.443 478.568 248.279C477.249 248.062 476.838 246.898 476.311 245.429C475.935 244.366 475.417 242.915 474.403 241.162C472.659 238.148 470.539 236.2 466.308 232.323C465.157 231.265 464.325 230.459 463.719 229.871C462.435 228.623 462.143 228.353 461.563 228.198C459.757 227.72 458.257 228.37 456.929 228.941C455.729 229.459 454.486 229.995 453.41 229.247C452.335 228.494 452.069 226.857 452.034 225.617C452.011 224.732 452.096 223.749 452.295 222.723C451.892 224.183 451.378 225.542 450.825 226.666C449.351 230.256 446.164 233.673 443.084 236.975C439.14 241.202 435.418 245.194 435.9 248.793C436.56 250.913 439.454 252.373 441.889 252.834C445.275 253.475 447.838 252.024 450.312 250.621C452.312 249.487 454.371 248.323 456.774 248.323H456.77ZM383.623 144.902C383.773 145.579 384.402 146.354 385.389 147.062C387.744 148.762 392.148 150.085 396.246 148.978C400.336 148.009 403.461 145.048 404.315 141.525C398.322 138.803 388.691 136.297 383.627 144.902H383.623ZM339.64 16.9506C339.574 16.9506 339.512 16.9506 339.445 16.9506C332.191 17.0834 325.069 24.8646 322.967 32.0526C321.975 35.4387 322.352 37.8022 323.095 42.5028C323.303 43.8129 323.538 45.2957 323.781 47.0219C323.83 47.3671 324.959 55.6883 325.361 73.0919C325.592 82.9977 324.503 88.1365 323.348 93.5762C322.268 98.6618 321.157 103.925 321.033 113.644C320.993 116.827 320.909 123.453 321.559 129.521C322.569 138.927 324.689 140.817 325.866 141.104C327.247 141.445 328.619 139.878 331.115 136.842C334.138 133.168 338.277 128.14 345.673 123.887C361.926 114.543 368.193 117.513 372.544 122.612C380.051 118.712 384.305 116.026 387.04 110.865C388.673 107.78 388.717 105.792 388.793 102.181C388.837 100.074 388.894 97.4535 389.302 93.8639C391.032 78.7663 396.605 67.4088 398.437 63.6731C400.633 59.1938 402.527 56.3301 404.196 53.8072C406.577 50.1999 408.462 47.3539 410.184 41.3918C412.38 33.8054 412.751 27.175 411.025 26.2942C409.99 25.7631 407.79 27.5114 405.851 29.0517C403.169 31.1807 400.398 33.3805 398.048 32.1943C396.392 31.3622 396.26 29.5342 396.091 27.2237C395.954 25.3559 395.786 23.0321 394.852 20.2791C392.927 13.901 389.399 9.77581 384.641 8.31518C378.816 6.53144 371.243 8.80205 364.378 14.3879C364.365 14.3967 364.356 14.4056 364.343 14.4144C362.391 15.8396 361.151 17.0613 360.155 18.0394C358.571 19.6019 357.424 20.7305 354.955 21.2484C351.316 22.0141 348.833 20.5978 346.439 19.2256C344.385 18.0483 342.438 16.9373 339.64 16.9373V16.9506ZM223.971 98.6087C224.582 98.6087 225.224 98.6707 225.901 98.8035C229.371 99.5028 231.381 101.756 232.85 103.402C234.05 104.748 234.767 105.5 235.55 105.306C236.812 104.996 237.206 102.499 237.75 99.0469C238.423 94.758 239.335 88.9774 242.57 82.7852C241.601 84.268 240.41 85.6799 239.029 86.9414C234.674 90.9205 229.584 92.3546 225.06 90.8762C224.994 90.8541 224.936 90.8276 224.874 90.7921C222.157 89.1456 222.064 86.1314 221.935 81.962C221.842 78.9035 221.723 75.1014 220.546 70.5867C220.169 69.1482 219.492 66.5545 218.169 63.5757C216.54 64.0582 215.376 64.7044 214.097 65.417C212.702 66.1916 211.26 66.9971 209.073 67.6699C206.754 68.3825 204.523 68.6702 202.354 68.6437C205.545 73.6895 207.869 77.8678 210.02 83.0065C212.911 89.9025 214.641 94.5499 212.508 96.2407C211.136 97.3296 209.418 96.254 207.245 94.8952C204.625 93.2531 201.035 91.009 196.206 90.9249C193.489 90.8807 191.895 91.5225 190.355 92.1466C188.677 92.8282 187.088 93.47 184.605 92.868C178.789 91.3366 174.974 84.6619 173.336 78.9256C171.318 71.8526 172.017 65.1691 175.12 61.8938C175.147 61.8628 175.178 61.8362 175.209 61.8097C178.559 59.123 182.972 60.9599 188.089 63.0888C191.293 64.4211 194.945 65.9393 198.915 66.5722C198.822 66.4262 198.725 66.2801 198.627 66.134C192.918 57.3924 189.142 51.6162 186.995 51.1736C179.356 49.3766 168.547 63.6908 160.66 74.141C159.677 75.4467 158.765 76.6462 157.924 77.7394C164.506 80.3331 169.162 85.2285 175.027 91.3985C176.873 93.3416 178.294 95.0235 179.436 96.3735C182.012 99.4187 183.304 100.95 185.676 101.158C187.969 101.362 189.536 100.264 191.346 98.9938C193.267 97.6438 195.445 96.1168 198.667 96.4399C201.597 96.7365 203.071 98.2989 204.496 99.8082C205.784 101.171 206.997 102.459 209.378 102.946C212.406 103.566 214.654 102.309 217.031 100.981C219.116 99.8171 221.258 98.6176 223.971 98.6176V98.6087ZM195.927 89.1456C196.029 89.1456 196.131 89.1456 196.233 89.1456C201.549 89.2386 205.537 91.7349 208.179 93.3859C209.507 94.218 211.012 95.1563 211.406 94.8421C212.649 93.8595 209.768 86.9856 208.387 83.6837C206.13 78.3015 203.673 73.9772 200.176 68.5197C195.418 68.0461 191.125 66.258 187.403 64.7132C182.649 62.7347 178.891 61.1723 176.359 63.1464C173.757 65.9526 173.226 72.0828 175.036 78.4343C176.536 83.7014 179.953 89.8095 185.035 91.1462C186.951 91.6066 188.097 91.1462 189.686 90.5C191.178 89.8936 193.028 89.1456 195.927 89.1456ZM225.707 89.2253C229.579 90.4469 233.992 89.1412 237.83 85.6357C242.119 81.7185 244.447 76.0929 243.495 71.9589C242.836 69.0951 240.742 67.1255 237.277 66.0986C237.223 66.0854 237.175 66.0632 237.126 66.0367C230.522 62.6728 224.773 62.5179 221.112 62.9782C220.687 63.0313 220.289 63.0933 219.917 63.1597C221.205 66.1296 221.873 68.6924 222.254 70.1353C223.485 74.8403 223.604 78.7574 223.701 81.9044C223.83 86.0429 223.971 88.1099 225.707 89.2253ZM599.203 86.1491C599.203 86.1491 599.203 86.1491 599.208 86.1491C599.208 86.1491 599.208 86.1491 599.203 86.1491ZM267.83 24.7274C266.706 27.2812 267.556 29.3837 268.538 31.8181C269.521 34.2569 270.636 37.0232 269.446 40.365C267.547 45.6985 261.461 47.8098 256.575 49.505C252.821 50.8063 249.581 51.9349 249.431 53.9046C249.214 56.7727 255.039 59.9861 259.044 61.2564C265.878 63.4252 271.854 60.92 274.102 59.7427C278.086 57.658 279.821 55.0244 282.22 51.3772C283.074 50.0759 284.043 48.602 285.212 47.0219C291.307 38.7671 298.596 33.2831 305.652 28.7861C303.54 26.9449 301.168 25.1257 298.796 23.4925C298.76 23.4703 298.729 23.4438 298.698 23.4172C293.905 19.0309 285.88 16.8621 278.723 18.0217C273.664 18.8406 269.795 21.2263 267.826 24.7362L267.83 24.7274Z" fill="#00561E"/>
<circle cx="591.305" cy="290.063" r="7.98341" fill="#B60000"/>
</svg>
